<?xml version="1.0" encoding="UTF-8" standalone="no"?>
<!-- Created with Inkscape (http://www.inkscape.org/) -->

<svg
   width="128mm"
   height="128mm"
   viewBox="0 0 128 128"
   version="1.1"
   id="svg1"
   inkscape:export-filename="beckford_insig_3.png"
   inkscape:export-xdpi="50.799999"
   inkscape:export-ydpi="50.799999"
   inkscape:version="1.4.2 (ebf0e940, 2025-05-08)"
   sodipodi:docname="beckford_insignia.svg"
   xmlns:inkscape="http://www.inkscape.org/namespaces/inkscape"
   xmlns:sodipodi="http://sodipodi.sourceforge.net/DTD/sodipodi-0.dtd"
   xmlns="http://www.w3.org/2000/svg"
   xmlns:svg="http://www.w3.org/2000/svg">
  <sodipodi:namedview
     id="namedview1"
     pagecolor="#ffffff"
     bordercolor="#000000"
     borderopacity="0.25"
     inkscape:showpageshadow="2"
     inkscape:pageopacity="0.0"
     inkscape:pagecheckerboard="0"
     inkscape:deskcolor="#d1d1d1"
     inkscape:document-units="mm"
     inkscape:zoom="1.4142136"
     inkscape:cx="293.09576"
     inkscape:cy="232.28458"
     inkscape:window-width="2464"
     inkscape:window-height="1382"
     inkscape:window-x="1619"
     inkscape:window-y="30"
     inkscape:window-maximized="1"
     inkscape:current-layer="layer1" />
  <defs
     id="defs1" />
  <g
     inkscape:label="Layer 1"
     inkscape:groupmode="layer"
     id="layer1"
     transform="translate(-73.429779,-81.283142)">
    <circle
       style="display:none;fill:#87744d;fill-opacity:1;stroke:none;stroke-width:1.028;stroke-linejoin:round;paint-order:markers fill stroke"
       id="path1"
       cx="137.42978"
       cy="145.28314"
       r="64" />
    <path
       id="circle1"
       style="display:none;fill:#87744d;fill-opacity:1;stroke:none;stroke-width:1.028;stroke-linejoin:round;paint-order:markers fill stroke"
       d="M 137.43001,81.283142 A 64,64 0 0 0 73.431846,144.78314 H 201.42765 A 64,64 0 0 0 137.43001,81.283142 Z M 73.478872,147.78296 a 64,64 0 0 0 63.951138,61.50012 64,64 0 0 0 63.95113,-61.50012 z" />
    <path
       id="path2"
       style="display:none;fill:#87744d;fill-opacity:1;stroke:none;stroke-width:1.028;stroke-linejoin:round;paint-order:markers fill stroke"
       d="m 73.478872,147.78296 c 1.342655,34.34738 29.577528,61.50011 63.951138,61.50012 34.37361,-1e-5 62.60848,-27.15275 63.95113,-61.50012 z"
       sodipodi:nodetypes="cscc"
       inkscape:label="bottom" />
    <path
       id="path3"
       style="display:none;fill:#ffffff;fill-opacity:1;stroke:none;stroke-width:1.028;stroke-linejoin:round;paint-order:markers fill stroke"
       d="M 137.43001,81.283142 C 102.27885,81.283078 73.706466,109.63305 73.431846,144.78314 H 201.42765 C 201.15303,109.63325 172.58097,81.283365 137.43001,81.283142 Z"
       sodipodi:nodetypes="cccc"
       inkscape:label="top" />
    <path
       id="path4"
       style="display:none;fill:#ffffff;fill-opacity:1;stroke:none;stroke-width:1.028;stroke-linejoin:round;paint-order:markers fill stroke"
       inkscape:label="bottom_1"
       d="m 73.478872,147.78296 c 0.395684,10.12228 3.126903,19.61949 7.662581,27.98124 h 38.965577 v 31.14487 c 5.51393,1.54747 11.32496,2.37401 17.32298,2.37401 5.99739,0 11.80801,-0.82685 17.32142,-2.37401 v -31.14384 h 38.96661 c 4.53602,-8.362 7.2674,-17.85957 7.6631,-27.98227 z" />
    <rect
       style="display:none;fill:#875c4d;fill-opacity:1;stroke:none;stroke-width:0.774938;stroke-linejoin:round;paint-order:markers fill stroke"
       id="rect7"
       width="46.677189"
       height="38.312"
       x="154.75133"
       y="175.76546" />
    <rect
       style="display:none;fill:#875c4d;fill-opacity:1;stroke:none;stroke-width:0.774938;stroke-linejoin:round;paint-order:markers fill stroke"
       id="rect8"
       width="46.677189"
       height="38.312"
       x="73.429779"
       y="175.76442" />
    <path
       id="path9"
       style="display:none;fill:#ffffff;fill-opacity:1;stroke:none;stroke-width:1.028;stroke-linejoin:round;paint-order:markers fill stroke"
       inkscape:label="bottom_2"
       d="m 73.478872,147.78296 c 0.257516,6.5877 1.504498,12.91074 3.594095,18.82831 h 36.652543 l -16.456876,28.5042 c 6.655826,5.36925 14.404876,9.42828 22.850806,11.7967 l 17.31057,-29.98215 17.31005,29.98266 c 8.52385,-2.39028 16.33787,-6.50289 23.03477,-11.94604 l -16.37109,-28.35537 h 36.38331 c 2.0896,-5.91758 3.33658,-12.24062 3.59409,-18.82831 z" />
    <circle
       style="display:none;fill:#514d87;fill-opacity:1;stroke:none;stroke-width:0.514;stroke-linejoin:round;paint-order:markers fill stroke"
       id="circle11"
       cx="137.57666"
       cy="145.16544"
       r="32" />
    <path
       style="display:none;fill:#875c4d;fill-opacity:1;stroke:none;stroke-width:1.028;stroke-linejoin:round;paint-order:markers fill stroke"
       d="m 183.40374,204.71626 -22,-38.10499 h 43.99999 z"
       id="path14"
       sodipodi:nodetypes="cccc" />
    <path
       style="display:none;fill:#875c4d;fill-opacity:1;stroke:none;stroke-width:1.028;stroke-linejoin:round;paint-order:markers fill stroke"
       d="m 137.42978,176.93002 -22,38.10499 h 43.99999 z"
       id="path15"
       sodipodi:nodetypes="cccc" />
    <path
       style="display:none;fill:#875c4d;fill-opacity:1;stroke:none;stroke-width:1.028;stroke-linejoin:round;paint-order:markers fill stroke"
       d="m 91.725612,204.71626 -22,-38.10499 h 43.999998 z"
       id="path16"
       sodipodi:nodetypes="cccc" />
    <path
       style="display:none;fill:#514d87;fill-opacity:1;stroke:none;stroke-width:1.028;stroke-linejoin:round;paint-order:markers fill stroke"
       d="M 73.429779,81.283142 H 117.42978 L 95.429779,134.39314 Z"
       id="path18"
       sodipodi:nodetypes="cccc" />
    <path
       id="path19"
       style="display:none;fill:#87744d;fill-opacity:1;stroke:none;stroke-width:1.028;stroke-linejoin:round;paint-order:markers fill stroke"
       d="m 73.478872,147.78296 c 1.342655,34.34738 29.577528,61.50011 63.951138,61.50012 34.37361,-1e-5 62.60848,-27.15275 63.95113,-61.50012 z"
       sodipodi:nodetypes="cscc"
       inkscape:label="bottom" />
    <path
       id="path24"
       style="display:none;fill:#ffffff;fill-opacity:1;stroke:none;stroke-width:1.028;stroke-linejoin:round;paint-order:markers fill stroke"
       inkscape:label="bottom_3"
       d="m 73.478872,147.78296 c 0.25277,6.46629 1.458831,12.67756 3.479374,18.50068 l 29.419914,5.2e-4 -18.950269,18.95078 c 5.105422,6.3812 11.404214,11.75767 18.551319,15.79748 l 19.85357,-19.85253 5.2e-4,27.05364 c 3.76315,0.68941 7.63913,1.04955 11.59671,1.04955 4.22573,0 8.35886,-0.4106 12.36048,-1.19424 l 5.2e-4,-26.90895 19.57555,19.57503 c 7.15902,-4.12959 13.44951,-9.60733 18.51928,-16.09411 l -18.37614,-18.37665 28.39207,-5.2e-4 c 2.02056,-5.82313 3.2266,-12.03438 3.47937,-18.50068 z" />
    <circle
       style="display:none;fill:#514d87;fill-opacity:1;stroke:none;stroke-width:0.610376;stroke-linejoin:round;paint-order:markers fill stroke"
       id="circle23"
       cx="138.0204"
       cy="145.28314"
       r="38" />
    <path
       style="display:none;fill:#514d87;fill-opacity:1;stroke:none;stroke-width:1.028;stroke-linejoin:round;paint-order:markers fill stroke"
       d="m 85.182896,221.82805 40.650714,16.83807 -10e-4,-57.48627 z"
       id="path25"
       sodipodi:nodetypes="cccc" />
    <path
       style="display:none;fill:#514d87;fill-opacity:1;stroke:none;stroke-width:1.028;stroke-linejoin:round;paint-order:markers fill stroke"
       d="m 48.89193,166.28314 16.838072,40.6507 40.648218,-40.64963 z"
       id="path26"
       sodipodi:nodetypes="cccc" />
    <path
       style="display:none;fill:#514d87;fill-opacity:1;stroke:none;stroke-width:1.028;stroke-linejoin:round;paint-order:markers fill stroke"
       d="m 190.44049,221.82805 -40.65071,16.83807 0.001,-57.48627 z"
       id="path27"
       sodipodi:nodetypes="cccc" />
    <path
       style="display:none;fill:#514d87;fill-opacity:1;stroke:none;stroke-width:1.028;stroke-linejoin:round;paint-order:markers fill stroke"
       d="m 226.99604,166.28314 -16.83807,40.6507 -40.64823,-40.64963 z"
       id="path28"
       sodipodi:nodetypes="cccc" />
    <g
       id="g33">
      <path
         id="path30"
         style="display:inline;fill:#f5f5f5;fill-opacity:1;stroke:none;stroke-width:1.028;stroke-linejoin:round;paint-order:markers fill stroke"
         inkscape:label="top"
         d="M 137.43001,81.283142 C 103.45341,81.28308 75.623216,107.77005 73.553286,141.2831 H 201.30621 C 199.23629,107.77025 171.4064,81.283358 137.43001,81.283142 Z" />
      <path
         id="path31"
         style="display:none;fill:#f5f5f5;fill-opacity:1;stroke:none;stroke-width:1.028;stroke-linejoin:round;paint-order:markers fill stroke"
         inkscape:label="bottom_1"
         d="m 73.500576,148.28319 c 0.464765,9.93497 3.179984,19.25713 7.640877,27.48101 h 38.965577 v 31.14487 c 5.51393,1.54747 11.32496,2.37401 17.32298,2.37401 5.99739,0 11.80801,-0.82685 17.32142,-2.37401 v -31.14384 h 38.96661 c 4.46124,-8.22413 7.17661,-17.54665 7.6414,-27.48204 z" />
      <path
         id="path32"
         style="display:none;fill:#f5f5f5;fill-opacity:1;stroke:none;stroke-width:1.028;stroke-linejoin:round;paint-order:markers fill stroke"
         inkscape:label="bottom_2"
         d="m 73.500576,148.28319 c 0.299765,6.40764 1.535734,12.56043 3.572391,18.32808 h 36.652543 l -16.456876,28.5042 c 6.655826,5.36925 14.404876,9.42828 22.850806,11.7967 l 17.31057,-29.98215 17.31005,29.98266 c 8.52385,-2.39028 16.33787,-6.50289 23.03477,-11.94604 l -16.37109,-28.35537 h 36.38331 c 2.03666,-5.76766 3.27263,-11.92045 3.57239,-18.32808 z" />
      <path
         id="path33"
         style="display:inline;fill:#f5f5f5;fill-opacity:1;stroke:none;stroke-width:1.028;stroke-linejoin:round;paint-order:markers fill stroke"
         inkscape:label="bottom_3"
         d="m 73.500576,148.28319 c 0.294095,6.28648 1.489278,12.32763 3.45767,18.00045 l 29.419914,5.2e-4 -18.950269,18.95078 c 5.105422,6.3812 11.404217,11.75767 18.551319,15.79748 l 19.85357,-19.85253 5.2e-4,27.05364 c 3.76315,0.68941 7.63913,1.04955 11.59671,1.04955 4.22573,0 8.35886,-0.4106 12.36048,-1.19424 l 5.2e-4,-26.90895 19.57555,19.57503 c 7.15902,-4.12959 13.44951,-9.60733 18.51928,-16.09411 l -18.37614,-18.37665 28.39207,-5.2e-4 c 1.96841,-5.67283 3.16357,-11.71396 3.45767,-18.00045 z" />
    </g>
  </g>
</svg>
