<?xml version="1.0" encoding="UTF-8" standalone="no"?>
<!-- Created with Inkscape (http://www.inkscape.org/) -->

<svg
   width="63.5mm"
   height="88.900002mm"
   viewBox="0 0 63.5 88.900002"
   version="1.1"
   id="svg1"
   inkscape:version="1.4.2 (ebf0e940, 2025-05-08)"
   sodipodi:docname="brass_instrument_card_front_vectors.svg"
   inkscape:export-filename="brass_instrument_card_front_vectors.png"
   inkscape:export-xdpi="360"
   inkscape:export-ydpi="360"
   xmlns:inkscape="http://www.inkscape.org/namespaces/inkscape"
   xmlns:sodipodi="http://sodipodi.sourceforge.net/DTD/sodipodi-0.dtd"
   xmlns="http://www.w3.org/2000/svg"
   xmlns:svg="http://www.w3.org/2000/svg">
  <sodipodi:namedview
     id="namedview1"
     pagecolor="#ffffff"
     bordercolor="#000000"
     borderopacity="0.25"
     inkscape:showpageshadow="2"
     inkscape:pageopacity="0.0"
     inkscape:pagecheckerboard="0"
     inkscape:deskcolor="#d1d1d1"
     inkscape:document-units="mm"
     inkscape:zoom="1.7863757"
     inkscape:cx="64.935949"
     inkscape:cy="141.90744"
     inkscape:window-width="1624"
     inkscape:window-height="994"
     inkscape:window-x="55"
     inkscape:window-y="25"
     inkscape:window-maximized="0"
     inkscape:current-layer="g72" />
  <defs
     id="defs1">
    <inkscape:path-effect
       effect="fillet_chamfer"
       id="path-effect2"
       is_visible="true"
       lpeversion="1"
       nodesatellites_param="F,0,0,1,0,2.1166667,0,1 @ F,0,0,1,0,2.1166667,0,1 @ F,0,0,1,0,2.1166667,0,1 @ F,0,0,1,0,2.1166667,0,1"
       radius="8"
       unit="px"
       method="auto"
       mode="F"
       chamfer_steps="1"
       flexible="false"
       use_knot_distance="true"
       apply_no_radius="true"
       apply_with_radius="true"
       only_selected="false"
       hide_knots="false" />
  </defs>
  <g
     inkscape:label="Layer 1"
     inkscape:groupmode="layer"
     id="layer1"
     style="display:none">
    <path
       id="rect1"
       style="display:none;fill:#6a6a6a;stroke-width:0.273082"
       d="M 2.1166667,0 H 61.383333 A 2.1166667,2.1166667 45 0 1 63.5,2.1166667 l 0,84.6666683 a 2.1166667,2.1166667 135 0 1 -2.116667,2.116667 H 2.1166667 A 2.1166667,2.1166667 45 0 1 0,86.783335 V 2.1166667 A 2.1166667,2.1166667 135 0 1 2.1166667,0 Z"
       inkscape:path-effect="#path-effect2"
       inkscape:original-d="M 0,0 H 63.5 V 88.900002 H 0 Z" />
    <rect
       style="display:none;fill:#6a6a6a;fill-opacity:1;stroke-width:0.273082"
       id="rect2"
       width="63.5"
       height="88.900002"
       x="0"
       y="0" />
    <path
       style="fill:#6a6a6a;fill-opacity:1;stroke-width:0.264583"
       d="M 0,1.8884859 1.0034466,1 6.6331025,0.73952808 H 15.127949 L 27.75,0 h 4 v 1 h -3.5 L 16.127949,1.7395281 H 7.6313792 L 1.7395281,2 1.065118,2.4992107 V 2.7807312 L 1.6,3.4 v 9.096593 l -0.289484,0.7969 0.064592,0.93853 L 2,15.153077 V 41.83083 l -0.4476429,0.450743 -0.05977,0.5673 L 1,43.386742 v 0.57208 L 1.3501505,44.194527 1.3738995,44.45 H 0.37389948 L 0,43.944322 v -0.58658 L 0.61480696,42.578453 0.6261834,42.016008 1,41.589736 V 15.33253 L 0.3,14.284662 V 13.223943 L 0.6,12.595924 V 4 L 0,3.2533113 Z"
       id="path3"
       sodipodi:nodetypes="cccccccccccccccccccccccccccccccccccccc"
       inkscape:label="border quarter" />
  </g>
  <g
     inkscape:groupmode="layer"
     id="layer2"
     inkscape:label="Layer 2"
     style="display:none">
    <path
       style="fill:#6a6a6a;fill-opacity:1;stroke-width:0.264583"
       d="M 0,2.3217479 C 0,1.3758285 0.63105536,1 1.0034466,1 1.2798621,1 6.2391294,0.73952808 6.6331025,0.73952808 H 15.127949 C 16.623243,0.73952808 25.091052,0 27.75,0 h 4 v 1 h -3.5 C 24.770557,1 18.183576,1.7395281 16.127949,1.7395281 H 7.0124335 C 6.619333,1.7395281 2.0564558,2 1.7395281,2 1.3763853,2 1.065118,2.065949 1.065118,2.4992107 V 2.7807312 C 1.065118,3.068703 1.6,3.2868543 1.6,3.6792213 v 8.8173717 c 0,0.249308 -0.3,0.412611 -0.3,0.91483 V 14.1403 c 0,0.485001 0.7,0.698024 0.7,1.012777 V 41.83083 c 0,0.183447 -0.4476429,0.306012 -0.4476429,0.450743 l -0.046667,0.541093 C 1.5056904,42.993513 1,43.229502 1,43.386742 v 0.57208 c 0,0.11793 0.3188834,0.119014 0.3501505,0.235705 L 1.3738995,44.45 H 0.37389948 C 0.37389948,44.45 0,44.193286 0,43.944322 v -0.58658 C 0,43.226709 0.61480696,42.748797 0.61480696,42.578453 L 0.6261834,42.016008 C 0.6261834,41.767044 1,41.720769 1,41.589736 V 15.33253 C 1,15.174745 0.3,14.809451 0.3,14.284662 v -0.968996 c 0,-0.590959 0.3,-0.562502 0.3,-0.719742 V 4.2961438 C 0.6,3.560706 0,3.7342367 0,2.8664702 Z"
       id="path4"
       sodipodi:nodetypes="cccccccccccccccccccccccccccccccccccccc"
       inkscape:label="border quarter" />
  </g>
  <g
     inkscape:groupmode="layer"
     id="g65"
     inkscape:label="Layer 3 copy"
     style="display:none">
    <path
       style="fill:#af9225;fill-opacity:1;stroke-width:0.264583"
       d="m 62.14985,44.705473 c 0.03127,0.116691 0.350151,0.117775 0.350151,0.235705 v 0.57208 c 0,0.15724 -0.50569,0.393229 -0.50569,0.564076 l -0.04667,0.541093 C 61.947643,46.763158 61.5,46.885723 61.5,47.06917 v 26.677753 c 0,0.314753 0.7,0.527776 0.7,1.012777 v 0.728877 c 0,0.502219 -0.3,0.665522 -0.3,0.91483 v 8.817372 c 0,0.392367 0.534882,0.610518 0.534882,0.89849 v 0.28152 c 0,0.433262 -0.311267,0.499211 -0.67441,0.499211 -0.316928,0 -4.879805,0.260472 -5.272906,0.260472 H 47.372051 C 45.316424,87.160472 38.729443,87.9 35.25,87.9 h -7 c -3.479443,0 -10.066424,-0.739528 -12.122051,-0.739528 H 7.0124335 C 6.619333,87.160472 2.0564558,86.9 1.7395281,86.9 1.3763853,86.9 1.065118,86.834051 1.065118,86.400789 v -0.28152 C 1.065118,85.831297 1.6,85.613146 1.6,85.220779 v -8.817372 c 0,-0.249308 -0.3,-0.412611 -0.3,-0.91483 V 74.7597 C 1.3,74.274699 2,74.061676 2,73.746923 V 47.06917 C 2,46.885723 1.5523571,46.763158 1.5523571,46.618427 L 1.5056901,46.077334 C 1.5056904,45.906487 1,45.670498 1,45.513258 v -0.57208 c 0,-0.11793 0.3188834,-0.119014 0.3501505,-0.235705 L 1.3738995,44.45 1.3501505,44.194527 C 1.3188834,44.077836 1,44.076752 1,43.958822 v -0.57208 c 0,-0.15724 0.5056904,-0.393229 0.5056901,-0.564076 l 0.046667,-0.541093 C 1.5523571,42.136842 2,42.014277 2,41.83083 V 15.153077 C 2,14.838324 1.3,14.625301 1.3,14.1403 v -0.728877 c 0,-0.502219 0.3,-0.665522 0.3,-0.91483 V 3.6792213 C 1.6,3.2868543 1.065118,3.068703 1.065118,2.7807312 V 2.4992107 C 1.065118,2.065949 1.3763853,2 1.7395281,2 2.0564558,2 6.619333,1.7395281 7.0124335,1.7395281 H 16.127949 C 18.183576,1.7395281 24.770557,1 28.25,1 h 7 c 3.479443,0 10.066424,0.7395281 12.122051,0.7395281 h 9.115515 C 56.880667,1.7395281 61.443544,2 61.760472,2 c 0.363143,0 0.67441,0.065949 0.67441,0.4992107 V 2.7807312 C 62.434882,3.068703 61.9,3.2868543 61.9,3.6792213 v 8.8173717 c 0,0.249308 0.3,0.412611 0.3,0.91483 V 14.1403 c 0,0.485001 -0.7,0.698024 -0.7,1.012777 V 41.83083 c 0,0.183447 0.447643,0.306012 0.447641,0.450743 l 0.04667,0.541093 c 0,0.170847 0.50569,0.406836 0.50569,0.564076 v 0.57208 c 0,0.11793 -0.318881,0.119014 -0.350151,0.235705 L 62.1261,44.45 M 0,44.955678 v 0.58658 c 0,0.131033 0.61480696,0.608945 0.61480696,0.779289 l 0.0113764,0.562445 C 0.6261834,47.132956 1,47.179231 1,47.310264 V 73.56747 c 0,0.157785 -0.7,0.523079 -0.7,1.047868 v 0.968996 c 0,0.590959 0.3,0.562502 0.3,0.719742 v 8.29978 C 0.6,85.339294 0,85.165763 0,86.03353 v 0.544722 C 0,87.524172 0.63105536,87.9 1.0034466,87.9 c 0.2764155,0 5.2356828,0.260472 5.6296559,0.260472 H 15.127949 C 16.623243,88.160472 25.091052,88.9 27.75,88.9 h 8 c 2.658948,0 11.126757,-0.739528 12.622051,-0.739528 h 8.494846 C 57.260871,88.160472 62.220138,87.9 62.496553,87.9 62.868945,87.9 63.5,87.524172 63.5,86.578252 V 86.03353 c 0,-0.867767 -0.6,-0.694236 -0.6,-1.429674 v -8.29978 c 0,-0.15724 0.3,-0.128783 0.3,-0.719742 v -0.968996 c 0,-0.524789 -0.7,-0.890083 -0.7,-1.047868 V 47.310264 c 0,-0.131033 0.373817,-0.177308 0.373813,-0.426272 l 0.01138,-0.562445 c 0,-0.170344 0.614807,-0.648256 0.614807,-0.779289 v -0.58658 C 63.5,44.706714 63.126101,44.45 63.126101,44.45 c 0,0 0.373899,-0.256714 0.373899,-0.505678 v -0.58658 c 0,-0.131033 -0.614807,-0.608945 -0.614807,-0.779289 l -0.01138,-0.562445 C 62.873817,41.767044 62.5,41.720769 62.5,41.589736 V 15.33253 c 0,-0.157785 0.7,-0.523079 0.7,-1.047868 v -0.968996 c 0,-0.590959 -0.3,-0.562502 -0.3,-0.719742 V 4.2961438 c 0,-0.7354378 0.6,-0.5619071 0.6,-1.4296736 V 2.3217479 C 63.5,1.3758285 62.868945,1 62.496553,1 62.220138,1 57.260871,0.73952808 56.866897,0.73952808 H 48.372051 C 46.876757,0.73952808 38.408948,0 35.75,0 h -8 C 25.091052,0 16.623243,0.73952808 15.127949,0.73952808 H 6.6331025 C 6.2391294,0.73952808 1.2798621,1 1.0034466,1 0.63105536,1 0,1.3758285 0,2.3217479 V 2.8664702 C 0,3.7342367 0.6,3.560706 0.6,4.2961438 v 8.2997802 c 0,0.15724 -0.3,0.128783 -0.3,0.719742 v 0.968996 c 0,0.524789 0.7,0.890083 0.7,1.047868 v 26.257206 c 0,0.131033 -0.3738166,0.177308 -0.3738166,0.426272 L 0.614807,42.578453 C 0.61480696,42.748797 0,43.226709 0,43.357742 v 0.58658 C 0,44.193286 0.37389948,44.45 0.37389948,44.45 0.37389948,44.45 0,44.706714 0,44.955678 Z"
       id="path65"
       sodipodi:nodetypes="ccccccccccccccccccccccccccccccccccccccccccccccccccccccccccccccccccccccccccccccccccccccccccccccccccccccccccccccccccccccccccccccccccccccccc"
       inkscape:label="border half" />
  </g>
  <g
     inkscape:groupmode="layer"
     id="layer3"
     inkscape:label="Layer 3"
     style="display:none">
    <path
       style="fill:#6a6a6a;fill-opacity:1;stroke-width:0.264583"
       d="m 62.14985,44.705473 c 0.03127,0.116691 0.350151,0.117775 0.350151,0.235705 v 0.57208 c 0,0.15724 -0.50569,0.393229 -0.50569,0.564076 l -0.04667,0.541093 C 61.947643,46.763158 61.5,46.885723 61.5,47.06917 v 26.677753 c 0,0.314753 0.7,0.527776 0.7,1.012777 v 0.728877 c 0,0.502219 -0.3,0.665522 -0.3,0.91483 v 8.817372 c 0,0.392367 0.534882,0.610518 0.534882,0.89849 v 0.28152 c 0,0.433262 -0.311267,0.499211 -0.67441,0.499211 -0.316928,0 -4.879805,0.260472 -5.272906,0.260472 H 47.372051 C 45.316424,87.160472 38.729443,87.9 35.25,87.9 h -7 c -3.479443,0 -10.066424,-0.739528 -12.122051,-0.739528 H 7.0124335 C 6.619333,87.160472 2.0564558,86.9 1.7395281,86.9 1.3763853,86.9 1.065118,86.834051 1.065118,86.400789 v -0.28152 C 1.065118,85.831297 1.6,85.613146 1.6,85.220779 v -8.817372 c 0,-0.249308 -0.3,-0.412611 -0.3,-0.91483 V 74.7597 C 1.3,74.274699 2,74.061676 2,73.746923 V 47.06917 C 2,46.885723 1.5523571,46.763158 1.5523571,46.618427 L 1.5056901,46.077334 C 1.5056904,45.906487 1,45.670498 1,45.513258 v -0.57208 c 0,-0.11793 0.3188834,-0.119014 0.3501505,-0.235705 L 1.3738995,44.45 1.3501505,44.194527 C 1.3188834,44.077836 1,44.076752 1,43.958822 v -0.57208 c 0,-0.15724 0.5056904,-0.393229 0.5056901,-0.564076 l 0.046667,-0.541093 C 1.5523571,42.136842 2,42.014277 2,41.83083 V 15.153077 C 2,14.838324 1.3,14.625301 1.3,14.1403 v -0.728877 c 0,-0.502219 0.3,-0.665522 0.3,-0.91483 V 3.6792213 C 1.6,3.2868543 1.065118,3.068703 1.065118,2.7807312 V 2.4992107 C 1.065118,2.065949 1.3763853,2 1.7395281,2 2.0564558,2 6.619333,1.7395281 7.0124335,1.7395281 H 16.127949 C 18.183576,1.7395281 24.770557,1 28.25,1 h 7 c 3.479443,0 10.066424,0.7395281 12.122051,0.7395281 h 9.115515 C 56.880667,1.7395281 61.443544,2 61.760472,2 c 0.363143,0 0.67441,0.065949 0.67441,0.4992107 V 2.7807312 C 62.434882,3.068703 61.9,3.2868543 61.9,3.6792213 v 8.8173717 c 0,0.249308 0.3,0.412611 0.3,0.91483 V 14.1403 c 0,0.485001 -0.7,0.698024 -0.7,1.012777 V 41.83083 c 0,0.183447 0.447643,0.306012 0.447641,0.450743 l 0.04667,0.541093 c 0,0.170847 0.50569,0.406836 0.50569,0.564076 v 0.57208 c 0,0.11793 -0.318881,0.119014 -0.350151,0.235705 L 62.1261,44.45 M 0,44.955678 v 0.58658 c 0,0.131033 0.61480696,0.608945 0.61480696,0.779289 l 0.0113764,0.562445 C 0.6261834,47.132956 1,47.179231 1,47.310264 V 73.56747 c 0,0.157785 -0.7,0.523079 -0.7,1.047868 v 0.968996 c 0,0.590959 0.3,0.562502 0.3,0.719742 v 8.29978 C 0.6,85.339294 0,85.165763 0,86.03353 v 0.544722 C 0,87.524172 0.63105536,87.9 1.0034466,87.9 c 0.2764155,0 5.2356828,0.260472 5.6296559,0.260472 H 15.127949 C 16.623243,88.160472 25.091052,88.9 27.75,88.9 h 8 c 2.658948,0 11.126757,-0.739528 12.622051,-0.739528 h 8.494846 C 57.260871,88.160472 62.220138,87.9 62.496553,87.9 62.868945,87.9 63.5,87.524172 63.5,86.578252 V 86.03353 c 0,-0.867767 -0.6,-0.694236 -0.6,-1.429674 v -8.29978 c 0,-0.15724 0.3,-0.128783 0.3,-0.719742 v -0.968996 c 0,-0.524789 -0.7,-0.890083 -0.7,-1.047868 V 47.310264 c 0,-0.131033 0.373817,-0.177308 0.373813,-0.426272 l 0.01138,-0.562445 c 0,-0.170344 0.614807,-0.648256 0.614807,-0.779289 v -0.58658 C 63.5,44.706714 63.126101,44.45 63.126101,44.45 c 0,0 0.373899,-0.256714 0.373899,-0.505678 v -0.58658 c 0,-0.131033 -0.614807,-0.608945 -0.614807,-0.779289 l -0.01138,-0.562445 C 62.873817,41.767044 62.5,41.720769 62.5,41.589736 V 15.33253 c 0,-0.157785 0.7,-0.523079 0.7,-1.047868 v -0.968996 c 0,-0.590959 -0.3,-0.562502 -0.3,-0.719742 V 4.2961438 c 0,-0.7354378 0.6,-0.5619071 0.6,-1.4296736 V 2.3217479 C 63.5,1.3758285 62.868945,1 62.496553,1 62.220138,1 57.260871,0.73952808 56.866897,0.73952808 H 48.372051 C 46.876757,0.73952808 38.408948,0 35.75,0 h -8 C 25.091052,0 16.623243,0.73952808 15.127949,0.73952808 H 6.6331025 C 6.2391294,0.73952808 1.2798621,1 1.0034466,1 0.63105536,1 0,1.3758285 0,2.3217479 V 2.8664702 C 0,3.7342367 0.6,3.560706 0.6,4.2961438 v 8.2997802 c 0,0.15724 -0.3,0.128783 -0.3,0.719742 v 0.968996 c 0,0.524789 0.7,0.890083 0.7,1.047868 v 26.257206 c 0,0.131033 -0.3738166,0.177308 -0.3738166,0.426272 L 0.614807,42.578453 C 0.61480696,42.748797 0,43.226709 0,43.357742 v 0.58658 C 0,44.193286 0.37389948,44.45 0.37389948,44.45 0.37389948,44.45 0,44.706714 0,44.955678 Z"
       id="path5"
       sodipodi:nodetypes="ccccccccccccccccccccccccccccccccccccccccccccccccccccccccccccccccccccccccccccccccccccccccccccccccccccccccccccccccccccccccccccccccccccccccc"
       inkscape:label="border half" />
  </g>
  <g
     inkscape:groupmode="layer"
     id="g66"
     inkscape:label="Layer 2 copy"
     style="display:none">
    <path
       style="fill:#6a6a6a;fill-opacity:1;stroke-width:0.264583"
       d="m 0,44.955678 v 0.58658 c 0,0.131033 0.61480696,0.608945 0.61480696,0.779289 l 0.0113764,0.562445 C 0.6261834,47.132956 1,47.179231 1,47.310264 V 73.56747 c 0,0.157785 -0.7,0.523079 -0.7,1.047868 v 0.968996 c 0,0.590959 0.3,0.562502 0.3,0.719742 v 8.29978 C 0.6,85.339294 0,85.165763 0,86.03353 v 0.544722 C 0,87.524172 0.63105536,87.9 1.0034466,87.9 c 0.2764155,0 5.2356828,0.260472 5.6296559,0.260472 H 15.127949 C 16.623243,88.160472 25.091052,88.9 27.75,88.9 h 4 v -1 h -3.5 c -3.479443,0 -10.066424,-0.739528 -12.122051,-0.739528 H 7.0124335 C 6.619333,87.160472 2.0564558,86.9 1.7395281,86.9 1.3763853,86.9 1.065118,86.834051 1.065118,86.400789 v -0.28152 C 1.065118,85.831297 1.6,85.613146 1.6,85.220779 v -8.817372 c 0,-0.249308 -0.3,-0.412611 -0.3,-0.91483 V 74.7597 C 1.3,74.274699 2,74.061676 2,73.746923 V 47.06917 C 2,46.885723 1.5523571,46.763158 1.5523571,46.618427 L 1.5056901,46.077334 C 1.5056904,45.906487 1,45.670498 1,45.513258 v -0.413766 c 0,-0.11793 0.3188834,-0.277328 0.3501505,-0.394019 L 1.3738995,44.45 1.3501505,44.194527 C 1.3188834,44.077836 1,43.927233 1,43.809303 v -0.422561 c 0,-0.15724 0.5056904,-0.393229 0.5056901,-0.564076 l 0.046667,-0.541093 C 1.5523571,42.136842 2,42.014277 2,41.83083 V 15.153077 C 2,14.838324 1.3,14.625301 1.3,14.1403 v -0.728877 c 0,-0.502219 0.3,-0.665522 0.3,-0.91483 V 4.3859886 l 0.5066647,-0.071695 0.489678,0.2088461 0.2106027,1.8236659 c 0,0 3.432184,0.5135946 3.8261571,0.5135946 h 8.4948465 c 1.495294,0 9.963103,0.739528 12.622051,0.739528 h 4 v -1 h -3.5 c -3.479443,0 -10.066424,-0.739528 -12.122051,-0.739528 H 7.0124335 c -0.3931005,0 -3.5326873,-0.545235 -3.5326873,-0.545235 L 3.2565027,3.8541687 2.3117716,3.550018 1.5824865,3.4340322 c 0,0 -0.5173685,-0.3653292 -0.5173685,-0.653301 V 2.4992107 C 1.065118,2.065949 1.3763853,2 1.7395281,2 2.0564558,2 6.619333,1.7395281 7.0124335,1.7395281 H 16.127949 C 18.183576,1.7395281 24.770557,1 28.25,1 h 3.5 V 0 h -4 C 25.091052,0 16.623243,0.73952808 15.127949,0.73952808 H 6.6331025 C 6.2391294,0.73952808 1.2798621,1 1.0034466,1 0.63105536,1 0,1.3758285 0,2.3217479 V 2.8664702 C 0,3.7342367 0.6,3.560706 0.6,4.2961438 v 8.2997802 c 0,0.15724 -0.3,0.128783 -0.3,0.719742 v 0.968996 c 0,0.524789 0.7,0.890083 0.7,1.047868 v 26.257206 c 0,0.131033 -0.3738166,0.177308 -0.3738166,0.426272 L 0.614807,42.578453 C 0.61480696,42.748797 0,43.226709 0,43.357742 v 0.58658 C 0,44.193286 0.27453995,44.323409 0.32992341,44.45 0.2587161,44.560767 0,44.706714 0,44.955678 Z"
       id="path66"
       sodipodi:nodetypes="cccccccccccccccccccccccccccccccccccccccccccccccccccccccccccccccccccccccccccccccccccccccc"
       inkscape:label="border quarter" />
  </g>
  <g
     inkscape:groupmode="layer"
     id="g67"
     inkscape:label="Layer 2 copy"
     style="display:none">
    <path
       style="fill:#6a6a6a;fill-opacity:1;stroke-width:0.264583"
       d="m 0,44.955678 v 0.58658 c 0,0.131033 0.61480696,0.608945 0.61480696,0.779289 l 0.0113764,0.562445 C 0.6261834,47.132956 1,47.179231 1,47.310264 V 73.56747 c 0,0.157785 -0.7,0.523079 -0.7,1.047868 v 0.968996 c 0,0.590959 0.3,0.562502 0.3,0.719742 v 8.29978 C 0.6,85.339294 0,85.165763 0,86.03353 v 0.544722 C 0,87.524172 0.63105536,87.9 1.0034466,87.9 c 0.2764155,0 5.2356828,0.260472 5.6296559,0.260472 H 15.127949 C 16.623243,88.160472 25.091052,88.9 27.75,88.9 h 4 v -1 h -3.5 c -3.479443,0 -10.066424,-0.739528 -12.122051,-0.739528 H 7.0124335 C 6.619333,87.160472 2.0564558,86.9 1.7395281,86.9 1.3763853,86.9 1.065118,86.834051 1.065118,86.400789 v -0.28152 C 1.065118,85.831297 1.6,85.613146 1.6,85.220779 v -8.817372 c 0,-0.249308 -0.3,-0.412611 -0.3,-0.91483 V 74.7597 C 1.3,74.274699 2,74.061676 2,73.746923 V 47.06917 C 2,46.885723 1.5523571,46.763158 1.5523571,46.618427 L 1.5056901,46.077334 C 1.5056904,45.906487 1,45.670498 1,45.513258 v -0.413766 c 0,-0.11793 0.3501505,-0.149255 0.3501505,-0.149255 L 31.75,44.950209 V 43.949791 L 1.3501505,43.949764 C 1.3501505,43.949764 1,43.927233 1,43.809303 v -0.422561 c 0,-0.15724 0.5056904,-0.393229 0.5056901,-0.564076 l 0.046667,-0.541093 C 1.5523571,42.136842 2,42.014277 2,41.83083 V 15.153077 C 2,14.838324 1.3,14.625301 1.3,14.1403 v -0.728877 c 0,-0.502219 0.3,-0.665522 0.3,-0.91483 V 4.3859886 l 0.5066647,-0.071695 0.489678,0.2088461 0.2106027,1.8236659 c 0,0 3.432184,0.5135946 3.8261571,0.5135946 h 8.4948465 c 1.495294,0 9.963103,0.739528 12.622051,0.739528 h 4 v -1 h -3.5 c -3.479443,0 -10.066424,-0.739528 -12.122051,-0.739528 H 7.0124335 c -0.3931005,0 -3.5326873,-0.545235 -3.5326873,-0.545235 L 3.2565027,3.8541687 2.3117716,3.550018 1.5824865,3.4340322 c 0,0 -0.5173685,-0.3653292 -0.5173685,-0.653301 V 2.4992107 C 1.065118,2.065949 1.3763853,2 1.7395281,2 2.0564558,2 6.619333,1.7395281 7.0124335,1.7395281 H 16.127949 C 18.183576,1.7395281 24.770557,1 28.25,1 h 3.5 V 0 h -4 C 25.091052,0 16.623243,0.73952808 15.127949,0.73952808 H 6.6331025 C 6.2391294,0.73952808 1.2798621,1 1.0034466,1 0.63105536,1 0,1.3758285 0,2.3217479 V 2.8664702 C 0,3.7342367 0.6,3.560706 0.6,4.2961438 v 8.2997802 c 0,0.15724 -0.3,0.128783 -0.3,0.719742 v 0.968996 c 0,0.524789 0.7,0.890083 0.7,1.047868 v 26.257206 c 0,0.131033 -0.3738166,0.177308 -0.3738166,0.426272 L 0.614807,42.578453 C 0.61480696,42.748797 0,43.226709 0,43.357742 v 0.58658 C 0,44.193286 0.27453995,44.323409 0.32992341,44.45 0.2587161,44.560767 0,44.706714 0,44.955678 Z"
       id="path67"
       sodipodi:nodetypes="ccccccccccccccccccccccccccccccccccccccccccccccccccccccccccccccccccccccccccccccccccccccccc"
       inkscape:label="border quarter" />
  </g>
  <g
     inkscape:groupmode="layer"
     id="g68"
     inkscape:label="Layer 2 copy"
     style="display:none">
    <path
       style="display:inline;fill:#6a6a6a;fill-opacity:1;stroke-width:0.264583"
       d="m 3.1025594,43.386742 c 0,-0.15724 -0.50569,-0.393229 -0.50569,-0.564076 l -0.04667,-0.541093 c 3e-6,-0.144731 -0.44764,-0.267296 -0.44764,-0.450743 L 2,41.83083 c 0,0.183447 -0.4476429,0.306012 -0.4476429,0.450743 l -0.046667,0.541093 C 1.5056904,42.993513 1,43.229502 1,43.386742 v 0.422561 c 0,0.05897 0.087538,0.09408 0.1750752,0.114454 0.087538,0.02037 0.1750753,0.02601 0.1750753,0.02601 l 1.7508055,7e-6 z m 1.0000003,2.155516 c 0,0.131033 -0.614807,0.608945 -0.614807,0.779289 l -0.01138,0.562445 c 0,0.248964 -0.373817,0.295239 -0.373817,0.426272 V 73.56747 c 0,0.157785 0.7,0.523079 0.7,1.047868 v 0.968996 c 0,0.590959 -0.3,0.562502 -0.3,0.719742 v 8.29978 c 0,0.735438 0.6,0.561907 0.6,1.429674 v 0.544722 L 4.0730202,86.903954 3.0202394,86.8918 c 0,0 0.017202,-0.05775 0.017202,-0.491011 v -0.28152 c 0,-0.287972 -0.534882,-0.506123 -0.534882,-0.89849 v -8.817372 c 0,-0.249308 0.3,-0.412611 0.3,-0.91483 V 74.7597 c 0,-0.485001 -0.7,-0.698024 -0.7,-1.012777 V 47.06917 c 0,-0.183447 0.447643,-0.306012 0.447643,-0.450743 l 0.04667,-0.541093 c 0,-0.170847 0.50569,-0.406836 0.50569,-0.564076 l 0.00944,-0.563028 -1.7618471,7e-6 c 0,0 -0.3501505,0.03132 -0.3501505,0.149255 v 0.413766 c 0,0.15724 0.5056904,0.393229 0.5056901,0.564076 l 0.046667,0.541093 C 1.5523571,46.763158 2,46.885723 2,47.06917 V 73.746923 C 2,74.061676 1.3,74.274699 1.3,74.7597 v 0.728877 c 0,0.502219 0.3,0.665522 0.3,0.91483 v 8.817372 c 0,0.392367 -0.534882,0.610518 -0.534882,0.89849 v 0.28152 c 0,0.433262 0.3112673,0.499211 0.6744101,0.499211 0.3169277,0 4.8798049,0.260472 5.2729054,0.260472 H 16.127949 C 18.183576,87.160472 24.770557,87.9 28.25,87.9 h 3.5 v 1 h -4 c -2.658948,0 -11.126757,-0.739528 -12.622051,-0.739528 H 6.6331025 C 6.2391294,88.160472 1.2798621,87.9 1.0034466,87.9 0.63105536,87.9 0,87.524172 0,86.578252 V 86.03353 c 0,-0.867767 0.6,-0.694236 0.6,-1.429674 v -8.29978 c 0,-0.15724 -0.3,-0.128783 -0.3,-0.719742 V 74.615338 C 0.3,74.090549 1,73.725255 1,73.56747 V 47.310264 C 1,47.179231 0.6261834,47.132956 0.62618336,46.883992 L 0.61480696,46.321547 C 0.61480696,46.151203 0,45.673291 0,45.542258 v -0.58658 C 0,44.706714 0.2587161,44.560767 0.32992341,44.45 0.27453995,44.323409 0,44.193286 0,43.944322 v -0.58658 C 0,43.226709 0.61480696,42.748797 0.614807,42.578453 L 0.6261834,42.016008 C 0.6261834,41.767044 1,41.720769 1,41.589736 V 15.33253 C 1,15.174745 0.3,14.809451 0.3,14.284662 v -0.968996 c 0,-0.590959 0.3,-0.562502 0.3,-0.719742 V 4.2961438 C 0.6,3.560706 0,3.7342367 0,2.8664702 V 2.3217479 C 0,1.3758285 0.63105536,1 1.0034466,1 1.2798621,1 6.2391294,0.73952808 6.6331025,0.73952808 H 15.127949 C 16.623243,0.73952808 25.091052,0 27.75,0 h 4 v 1 h -3.5 C 24.770557,1 18.183576,1.7395281 16.127949,1.7395281 H 7.0124335 C 6.619333,1.7395281 2.0564558,2 1.7395281,2 1.3763853,2 1.065118,2.065949 1.065118,2.4992107 v 0.2815205 c 0,0.2879718 0.5173685,0.653301 0.5173685,0.653301 L 2.3117716,3.550018 3.2565027,3.8541687 3.4797462,5.3151652 c 0,0 3.1395868,0.545235 3.5326873,0.545235 h 9.1155155 c 2.055627,0 8.642608,0.739528 12.122051,0.739528 h 3.5 v 1 h -4 c -2.658948,0 -11.126757,-0.739528 -12.622051,-0.739528 H 6.6331025 c -0.3939731,0 -2.9601373,-0.4789538 -2.9601373,-0.4789538 l -0.1704058,0.293365 v 5.9211126 c 0,0.15724 0.3,0.128783 0.3,0.719742 v 0.968996 c 0,0.524789 -0.6219336,1.056542 -0.6219336,1.056542 0,0 -0.550527,0.606435 -0.7507828,0.606435 C 2.2476885,15.947639 2,15.998935 2,16.146394 v 25.058279 l 1.1025597,0.385063 0.373817,0.426272 0.01138,0.562445 c 0,0.170344 0.614807,0.648256 0.614807,0.779289 l -0.01968,0.592036 27.6671163,1.3e-5 v 1.000418 l -27.6520872,1.4e-5 z M 2.4693265,4.476952 2.1066647,4.3142936 1.6,4.3859886 v 8.1106044 c 0,0.249308 -0.3,0.412611 -0.3,0.91483 V 14.1403 c 0,0.485001 0.7,0.698024 0.7,1.012777 h 0.1025594 c 0,-0.314753 0.7,-0.527776 0.7,-1.012777 v -0.728877 c 0,-0.502219 -0.3,-0.665522 -0.3,-0.91483 V 6.3836075 l 0.017513,-1.4600213 z"
       id="path69"
       sodipodi:nodetypes="cccccccccscccccccccccccccccccccccccccccccccccccccccccccccccccccccccccccccccccccccccccccccccccccccccccccccccccccccccccccccccccccccccccccccccccc"
       inkscape:label="border quarter" />
  </g>
  <g
     inkscape:groupmode="layer"
     id="g70"
     inkscape:label="Layer 2 copy"
     style="display:none">
    <path
       style="fill:#6a6a6a;fill-opacity:1;stroke-width:0.264583"
       d="m 2.4847447,43.949791 -1.1345942,-2.7e-5 C 1.3501505,43.949764 1,43.927233 1,43.809303 v -0.422561 c 0,-0.15724 0.5056904,-0.393229 0.5056901,-0.564076 l 0.046667,-0.541093 C 1.5523571,42.136842 2,42.014277 2,41.83083 V 15.153077 C 2,14.838324 1.3,14.625301 1.3,14.1403 v -0.728877 c 0,-0.502219 0.3,-0.665522 0.3,-0.91483 V 4.3859886 L 2.1066647,4.3142936 2.5963427,4.5231397 2.8069454,6.3468056 2.8069591,43.95 Z M 2.8069727,44.95 2.807,85.603847 l 0.451647,0.344505 0.9783317,0.372481 c 0,0 5.2356828,0.260472 5.6296559,0.260472 h 5.8685894 c 1.495294,0 9.002966,0.739528 11.661914,0.739528 H 31.75 v -1 h -3.852862 c -3.479443,0 -9.106287,-0.739528 -11.161914,-0.739528 h -6.489258 c -0.3931009,0 -5.2729058,-0.260472 -5.2729058,-0.260472 L 4.1677999,85.030982 3.807,84.756311 V 6.384209 c 0,0 2.6291159,0.4761862 2.8261025,0.4761862 h 8.4948465 c 1.495294,0 9.963103,0.739528 12.622051,0.739528 h 4 v -1 h -3.5 c -3.479443,0 -10.066424,-0.739528 -12.122051,-0.739528 H 7.0124335 c -0.3931005,0 -3.5326873,-0.545235 -3.5326873,-0.545235 L 3.2565027,3.8541687 2.3117716,3.550018 1.5824865,3.4340322 c 0,0 -0.5173685,-0.3653292 -0.5173685,-0.653301 V 2.4992107 C 1.065118,2.065949 1.3763853,2 1.7395281,2 2.0564558,2 6.619333,1.7395281 7.0124335,1.7395281 H 16.127949 C 18.183576,1.7395281 24.770557,1 28.25,1 h 3.5 V 0 h -4 C 25.091052,0 16.623243,0.73952808 15.127949,0.73952808 H 6.6331025 C 6.2391294,0.73952808 1.2798621,1 1.0034466,1 0.63105536,1 0,1.3758285 0,2.3217479 V 2.8664702 C 0,3.7342367 0.6,3.560706 0.6,4.2961438 v 8.2997802 c 0,0.15724 -0.3,0.128783 -0.3,0.719742 v 0.968996 c 0,0.524789 0.7,0.890083 0.7,1.047868 v 26.257206 c 0,0.131033 -0.3738166,0.177308 -0.3738166,0.426272 L 0.614807,42.578453 C 0.61480696,42.748797 0,43.226709 0,43.357742 v 0.58658 C 0,44.193286 0.27453995,44.323409 0.32992341,44.45 0.2587161,44.560767 0,44.706714 0,44.955678 v 0.58658 c 0,0.131033 0.61480696,0.608945 0.61480696,0.779289 l 0.0113764,0.562445 C 0.6261834,47.132956 1,47.179231 1,47.310264 V 73.56747 c 0,0.157785 -0.7,0.523079 -0.7,1.047868 v 0.968996 c 0,0.590959 0.3,0.562502 0.3,0.719742 v 8.29978 C 0.6,85.339294 0,85.165763 0,86.03353 v 0.544722 C 0,87.524172 0.63105536,87.9 1.0034466,87.9 c 0.2764155,0 5.2356828,0.260472 5.6296559,0.260472 H 15.127949 C 16.623243,88.160472 25.091052,88.9 27.75,88.9 h 4 v -1 h -3.5 c -3.479443,0 -10.066424,-0.739528 -12.122051,-0.739528 H 7.0124335 C 6.619333,87.160472 2.0564558,86.9 1.7395281,86.9 1.3763853,86.9 1.065118,86.834051 1.065118,86.400789 v -0.28152 C 1.065118,85.831297 1.6,85.613146 1.6,85.220779 v -8.817372 c 0,-0.249308 -0.3,-0.412611 -0.3,-0.91483 V 74.7597 C 1.3,74.274699 2,74.061676 2,73.746923 V 47.06917 C 2,46.885723 1.5523571,46.763158 1.5523571,46.618427 L 1.5056901,46.077334 C 1.5056904,45.906487 1,45.670498 1,45.513258 v -0.413766 c 0,-0.11793 0.3501505,-0.149255 0.3501505,-0.149255 l 1.1345942,-2.8e-5 z"
       id="path71"
       sodipodi:nodetypes="ccccccccccccccccccccccccccccccccccccccccccccccccccccccccccccccccccccccccccccccccccccccccccccccccccccccccccc"
       inkscape:label="border quarter" />
  </g>
  <g
     inkscape:groupmode="layer"
     id="g72"
     inkscape:label="Layer 2 copy"
     style="display:inline">
    <path
       style="fill:#6a6a6a;fill-opacity:1;stroke-width:0.264583"
       d="M 32.453099,45.860943 H 6.1883634 c -0.131033,0 -0.177308,0.373817 -0.426272,0.373817 l -0.562445,0.01138 c -0.170344,0 -0.648256,0.614807 -0.779289,0.614807 h -0.58658 c -0.248964,0 -0.505678,-0.329923 -0.505678,-0.329923 v -1.020233 l -4.9e-5,-0.920648 v -0.2662 l 4.9e-5,-0.920648 v -1.020233 c 0,0 0.256714,-0.329923 0.505678,-0.329923 h 0.58658 c 0.131033,0 0.608945,0.614807 0.779289,0.614807 l 0.562445,0.01138 c 0.248964,0 0.295239,0.373817 0.426272,0.373817 H 32.453099 v 1 l -26.5058756,3e-6 c -0.183447,0 -0.306012,-0.447643 -0.450743,-0.447643 l -0.541093,-0.04667 c -0.170847,0 -0.406836,-0.50569 -0.564076,-0.50569 h -0.422561 l -0.04212,0.350151 -0.0088,0.776722 v 0.554054 l 0.0088,0.776722 0.04212,0.350151 h 0.422561 c 0.15724,0 0.393229,-0.50569 0.564076,-0.50569 l 0.541093,-0.04667 c 0.144731,0 0.267296,-0.447643 0.450743,-0.447643 H 32.453099 Z"
       id="path72"
       sodipodi:nodetypes="ccccccccccccccccccccccccccccccccccc"
       inkscape:label="border quarter" />
    <path
       style="fill:#6a6a6a;fill-opacity:1;stroke-width:0.264583"
       d="m 2.4847447,43.949791 -1.1345942,-2.7e-5 C 1.3501505,43.949764 1,43.927233 1,43.809303 v -0.422561 c 0,-0.15724 0.5056904,-0.393229 0.5056901,-0.564076 l 0.046667,-0.541093 C 1.5523571,42.136842 2,42.014277 2,41.83083 V 15.153077 C 2,14.838324 1.3,14.625301 1.3,14.1403 v -0.728877 c 0,-0.502219 0.3,-0.665522 0.3,-0.91483 V 4.3859886 L 2.1066647,4.3142936 2.5963427,4.5231397 2.8069454,6.3468056 2.8069591,43.95 Z M 2.8069727,44.95 2.807,85.603847 l 0.451647,0.344505 0.9783317,0.372481 c 0,0 5.2356828,0.260472 5.6296559,0.260472 h 5.8685894 c 1.495294,0 9.002966,0.739528 11.661914,0.739528 H 31.75 v -1 h -3.852862 c -3.479443,0 -9.106287,-0.739528 -11.161914,-0.739528 h -6.489258 c -0.3931009,0 -5.2729058,-0.260472 -5.2729058,-0.260472 L 4.1677999,85.030982 3.807,84.756311 V 6.384209 c 0,0 2.6291159,0.4761862 2.8261025,0.4761862 h 8.4948465 c 1.495294,0 9.963103,0.739528 12.622051,0.739528 h 4 v -1 h -3.5 c -3.479443,0 -10.066424,-0.739528 -12.122051,-0.739528 H 7.0124335 c -0.3931005,0 -3.5326873,-0.545235 -3.5326873,-0.545235 L 3.2565027,3.8541687 2.3117716,3.550018 1.5824865,3.4340322 c 0,0 -0.5173685,-0.3653292 -0.5173685,-0.653301 V 2.4992107 C 1.065118,2.065949 1.3763853,2 1.7395281,2 2.0564558,2 6.619333,1.7395281 7.0124335,1.7395281 H 16.127949 C 18.183576,1.7395281 24.770557,1 28.25,1 h 3.5 V 0 h -4 C 25.091052,0 16.623243,0.73952808 15.127949,0.73952808 H 6.6331025 C 6.2391294,0.73952808 1.2798621,1 1.0034466,1 0.63105536,1 0,1.3758285 0,2.3217479 V 2.8664702 C 0,3.7342367 0.6,3.560706 0.6,4.2961438 v 8.2997802 c 0,0.15724 -0.3,0.128783 -0.3,0.719742 v 0.968996 c 0,0.524789 0.7,0.890083 0.7,1.047868 v 26.257206 c 0,0.131033 -0.3738166,0.177308 -0.3738166,0.426272 L 0.614807,42.578453 C 0.61480696,42.748797 0,43.226709 0,43.357742 v 0.58658 C 0,44.193286 0.27453995,44.323409 0.32992341,44.45 0.2587161,44.560767 0,44.706714 0,44.955678 v 0.58658 c 0,0.131033 0.61480696,0.608945 0.61480696,0.779289 l 0.0113764,0.562445 C 0.6261834,47.132956 1,47.179231 1,47.310264 V 73.56747 c 0,0.157785 -0.7,0.523079 -0.7,1.047868 v 0.968996 c 0,0.590959 0.3,0.562502 0.3,0.719742 v 8.29978 C 0.6,85.339294 0,85.165763 0,86.03353 v 0.544722 C 0,87.524172 0.63105536,87.9 1.0034466,87.9 c 0.2764155,0 5.2356828,0.260472 5.6296559,0.260472 H 15.127949 C 16.623243,88.160472 25.091052,88.9 27.75,88.9 h 4 v -1 h -3.5 c -3.479443,0 -10.066424,-0.739528 -12.122051,-0.739528 H 7.0124335 C 6.619333,87.160472 2.0564558,86.9 1.7395281,86.9 1.3763853,86.9 1.065118,86.834051 1.065118,86.400789 v -0.28152 C 1.065118,85.831297 1.6,85.613146 1.6,85.220779 v -8.817372 c 0,-0.249308 -0.3,-0.412611 -0.3,-0.91483 V 74.7597 C 1.3,74.274699 2,74.061676 2,73.746923 V 47.06917 C 2,46.885723 1.5523571,46.763158 1.5523571,46.618427 L 1.5056901,46.077334 C 1.5056904,45.906487 1,45.670498 1,45.513258 v -0.413766 c 0,-0.11793 0.3501505,-0.149255 0.3501505,-0.149255 l 1.1345942,-2.8e-5 z"
       id="path73"
       sodipodi:nodetypes="ccccccccccccccccccccccccccccccccccccccccccccccccccccccccccccccccccccccccccccccccccccccccccccccccccccccccccc"
       inkscape:label="border quarter" />
  </g>
</svg>
