<?xml version="1.0" encoding="UTF-8" standalone="no"?>
<!-- Created with Inkscape (http://www.inkscape.org/) -->

<svg
   width="63.5mm"
   height="88.900002mm"
   viewBox="0 0 63.5 88.900002"
   version="1.1"
   id="svg1"
   inkscape:version="1.4.2 (f4327f4, 2025-05-13)"
   sodipodi:docname="brass_instrument_card_front_vectors_3.svg"
   inkscape:export-filename="brass_instrument_card_front_vectors.png"
   inkscape:export-xdpi="360"
   inkscape:export-ydpi="360"
   xml:space="preserve"
   xmlns:inkscape="http://www.inkscape.org/namespaces/inkscape"
   xmlns:sodipodi="http://sodipodi.sourceforge.net/DTD/sodipodi-0.dtd"
   xmlns="http://www.w3.org/2000/svg"
   xmlns:svg="http://www.w3.org/2000/svg"><sodipodi:namedview
     id="namedview1"
     pagecolor="#ffffff"
     bordercolor="#000000"
     borderopacity="0.25"
     inkscape:showpageshadow="2"
     inkscape:pageopacity="0.0"
     inkscape:pagecheckerboard="0"
     inkscape:deskcolor="#d1d1d1"
     inkscape:document-units="mm"
     inkscape:zoom="2.8284271"
     inkscape:cx="59.043416"
     inkscape:cy="185.96908"
     inkscape:window-width="2560"
     inkscape:window-height="1377"
     inkscape:window-x="-8"
     inkscape:window-y="-8"
     inkscape:window-maximized="1"
     inkscape:current-layer="g72" /><defs
     id="defs1"><inkscape:path-effect
       effect="spiro"
       id="path-effect1"
       is_visible="true"
       lpeversion="1" /><inkscape:path-effect
       effect="fillet_chamfer"
       id="path-effect2"
       is_visible="true"
       lpeversion="1"
       nodesatellites_param="F,0,0,1,0,2.1166667,0,1 @ F,0,0,1,0,2.1166667,0,1 @ F,0,0,1,0,2.1166667,0,1 @ F,0,0,1,0,2.1166667,0,1"
       radius="8"
       unit="px"
       method="auto"
       mode="F"
       chamfer_steps="1"
       flexible="false"
       use_knot_distance="true"
       apply_no_radius="true"
       apply_with_radius="true"
       only_selected="false"
       hide_knots="false" /></defs><g
     inkscape:groupmode="layer"
     id="g72"
     inkscape:label="rectangleofcard"
     style="display:inline"><path
       style="display:inline;fill:#918854;fill-opacity:1;stroke:none;stroke-width:0.264999"
       d="m 31.75,88.419031 -4.807985,-0.05237 -2.801551,-0.10473 -7.51444,-0.628385 H 7.1478814 L 0.96876049,87.293174 0.39274072,86.324412 0.44510615,85.774577 0.9949432,85.277104 1.099674,76.322615 0.78548147,75.668049 V 74.516008 L 1.4924148,73.704343 1.5185974,47.207437 1.0734912,46.736148 0.99494312,46.055396 0.41892336,45.348464 0.52365423,44.955721 0.99494312,44.458252 0.52365423,43.646587 0.47128879,43.306211 0.96876041,42.756375 1.099674,41.997076 1.4400493,41.709067 1.5185975,15.107427 0.78548147,14.374311 0.70693332,13.065175 1.0473086,12.541521 1.1520395,3.7964938 0.5236543,2.9848296 0.65456789,1.8066074 0.96876049,1.5185975 6.5194962,1.2567703 15.81436,1.2305876 26.706369,0.44510615 31.75,0.47128875 Z"
       id="path6"
       sodipodi:nodetypes="ccccccccccccccccccccccccccccccccccccc"
       inkscape:label="leftrearmost" /><path
       style="display:inline;fill:#918854;fill-opacity:1;stroke:none;stroke-width:0.264999"
       d="m 31.7,88.419031 4.857985,-0.05237 2.801551,-0.10473 7.51444,-0.628385 h 9.478142 l 6.179121,-0.340372 0.57602,-0.968762 -0.05237,-0.549835 -0.549837,-0.497473 -0.104731,-8.954489 0.314192,-0.654566 V 74.516008 L 62.00758,73.704343 61.9814,47.207437 l 0.445107,-0.471289 0.07855,-0.680752 0.576019,-0.706932 -0.104731,-0.392743 -0.471288,-0.497469 0.471288,-0.811665 0.05237,-0.340376 -0.497472,-0.549836 -0.130913,-0.759299 -0.340376,-0.288009 -0.07855,-26.60164 0.733116,-0.733116 0.07855,-1.309136 L 62.452691,12.541521 62.34796,3.7964938 62.976345,2.9848296 62.845432,1.8066074 62.531239,1.5185975 56.980504,1.2567703 47.68564,1.2305876 36.793631,0.44510615 31.7,0.47128875 Z"
       id="path33"
       sodipodi:nodetypes="ccccccccccccccccccccccccccccccccccccc"
       inkscape:label="rightrearmost" /><path
       style="display:inline;fill:#1b1b1b;fill-opacity:1;stroke:none;stroke-width:0.264999"
       d="M 3.508484,5.8649282 6.7551405,6.3362172 17.018765,6.4409481 25.606696,7.0169677 31.75,7.1216987 V 43.515674 L 5.9696593,43.568037 5.5507357,43.096751 H 4.9223506 L 4.3463307,42.573096 H 3.3513876 Z"
       id="path1"
       sodipodi:nodetypes="cccccccccccc"
       inkscape:label="leftimgarea" /><path
       style="display:inline;fill:#1b1b1b;fill-opacity:1;stroke:none;stroke-width:0.264999"
       d="m 3.4037529,46.395772 h 0.9425778 l 0.5760199,-0.576019 h 0.733116 L 6.1267554,45.296097 31.75,45.348467 V 86.821888 H 25.659065 L 16.704577,85.98404 10.001801,86.03641 4.2939695,85.774584 3.2990261,84.832005 Z"
       id="path2"
       sodipodi:nodetypes="ccccccccccccc"
       inkscape:label="leftdescriptionarea" /><path
       style="display:inline;fill:#1b1b1b;fill-opacity:1;stroke:none;stroke-width:0.264999"
       d="M 59.991516,5.8649282 56.744859,6.3362172 46.481235,6.4409481 37.893304,7.0169677 31.7,7.1216987 V 43.515674 l 25.830341,0.05236 0.418923,-0.471286 h 0.628385 l 0.57602,-0.523655 h 0.994943 z"
       id="path31"
       sodipodi:nodetypes="cccccccccccc"
       inkscape:label="rightimgarea" /><path
       style="display:inline;fill:#1b1b1b;fill-opacity:1;stroke:none;stroke-width:0.264999"
       d="m 60.096247,46.395772 h -0.942578 l -0.57602,-0.576019 H 57.844533 L 57.373245,45.296097 31.7,45.348467 v 41.473421 h 6.140935 l 8.954488,-0.837848 6.702776,0.05237 5.707831,-0.261826 0.994944,-0.942579 z"
       id="path32"
       sodipodi:nodetypes="ccccccccccccc"
       inkscape:label="rightdescriptionarea" /><path
       style="display:inline;fill:#1b1b1b;fill-opacity:1;stroke:#704d87;stroke-width:0;stroke-linecap:butt;stroke-linejoin:round;stroke-dasharray:none;stroke-opacity:1"
       d="M 3.3208237,7.3130779 6.735192,8.0614326 17.352474,7.9678883 27.127856,8.716243 H 35.82748 L 45.55609,8.201749 56.594321,8.0146603 60.055463,7.4533944 62.440843,3.6950012 62.861792,2.8063301 62.815019,1.7305702 62.113437,1.403165 57.20236,1.0757598 46.772165,1.122532 37.838684,0.46772165 H 26.098869 L 16.978296,1.0757598 6.9222807,1.3096207 1.122532,1.4967093 0.56126599,2.0112032 0.70158249,3.2740518 1.683798,3.8820899 2.8531021,4.2094951 Z"
       id="path15"
       inkscape:label="nameplatebacking"
       sodipodi:nodetypes="cccccccccccccccccccccccc" /><path
       style="display:inline;fill:#918854;fill-opacity:1;stroke:none;stroke-width:0;stroke-linecap:butt;stroke-linejoin:round;stroke-dasharray:none;stroke-opacity:1"
       d="m 6.0336096,43.498116 51.4493834,0.04677 0.374177,-0.374176 0.654812,-0.09354 0.420949,-0.467722 1.262848,-0.140316 V 5.4723436 L 60.686887,4.1510299 62.39407,3.4611404 v 8.9802556 l 0.327406,0.795127 v 1.122532 l -0.701582,0.935443 -0.04677,26.192414 0.514495,0.701583 0.04677,0.561266 0.561266,0.701582 -0.561266,0.935442 0.467723,0.795129 -0.467723,0.841899 -0.233859,0.888671 -2.198294,-0.514495 -0.935442,-0.09354 -0.654809,-0.467722 -0.748356,-0.140316 -0.420949,-0.374177 -51.2155232,-0.04677 -0.4209494,0.42095 -0.6080382,0.09354 -0.8886711,0.514495 -0.8886714,0.04677 -2.011203,0.561265 L 1.0757598,46.210902 0.56126599,45.462547 0.88867116,44.527102 0.46772168,43.778749 0.88867116,42.890077 1.122532,42.001405 1.4499372,41.767545 1.5434815,15.200954 0.841899,14.4526 V 13.189751 L 1.2160764,6.1739259 3.3208236,6.1271538 3.1805073,12.95589 3.3208237,42.422355 4.3965836,42.469125 5.051394,43.21748 5.6594321,43.12393 Z"
       id="path16"
       inkscape:label="to blk image"
       sodipodi:nodetypes="cccccccccccccccccccccccccccccccccccccccccccccccccc" /><path
       style="display:inline;fill:#87744d;fill-opacity:1;stroke-width:0.264583"
       d="M 31.75,45.860943 H 6.1883634 c -0.131033,0 -0.177308,0.373817 -0.426272,0.373817 l -0.562445,0.01138 c -0.170344,0 -0.648256,0.614807 -0.779289,0.614807 h -0.58658 c -0.248964,0 -0.505678,-0.329923 -0.505678,-0.329923 v -1.020233 l -4.9e-5,-0.920648 v -0.2662 l 4.9e-5,-0.920648 v -1.020233 c 0,0 0.256714,-0.329923 0.505678,-0.329923 h 0.58658 c 0.131033,0 0.608945,0.614807 0.779289,0.614807 l 0.562445,0.01138 c 0.248964,0 0.295239,0.373817 0.426272,0.373817 H 31.75 v 1 l -25.8027766,3e-6 c -0.183447,0 -0.306012,-0.447643 -0.450743,-0.447643 l -0.541093,-0.04667 c -0.170847,0 -0.406836,-0.50569 -0.564076,-0.50569 h -0.422561 l -0.04212,0.350151 -0.0088,0.776722 v 0.554054 l 0.0088,0.776722 0.04212,0.350151 h 0.422561 c 0.15724,0 0.393229,-0.50569 0.564076,-0.50569 l 0.541093,-0.04667 c 0.144731,0 0.267296,-0.447643 0.450743,-0.447643 H 31.75 Z"
       id="path72"
       sodipodi:nodetypes="ccccccccccccccccccccccccccccccccccc"
       inkscape:label="leftcenterrod" /><path
       style="display:inline;fill:#87744d;fill-opacity:1;stroke-width:0.264583"
       d="m 2.4847447,43.949791 -1.1345942,-2.7e-5 C 1.3501505,43.949764 1,43.927233 1,43.809303 v -0.422561 c 0,-0.15724 0.5056904,-0.393229 0.5056901,-0.564076 l 0.046667,-0.541093 C 1.5523571,42.136842 2,42.014277 2,41.83083 V 15.153077 C 2,14.838324 1.3,14.625301 1.3,14.1403 v -0.728877 c 0,-0.502219 0.3,-0.665522 0.3,-0.91483 V 4.3859886 L 2.1066647,4.3142936 2.5963427,4.5231397 2.8069454,8.3973264 2.8069591,43.95 Z M 2.8069727,44.95 2.807,85.603847 l 0.451647,0.344505 0.9783317,0.372481 c 0,0 5.2356828,0.260472 5.6296559,0.260472 h 5.8685894 c 1.495294,0 9.002966,0.739528 11.661914,0.739528 H 31.75 v -1 h -3.852862 c -3.479443,0 -9.106287,-0.739528 -11.161914,-0.739528 h -6.489258 c -0.3931009,0 -5.2729058,-0.260472 -5.2729058,-0.260472 L 4.1677999,85.030982 3.807,84.756311 V 8.4347298 c 0,0 2.6291159,0.4761862 2.8261025,0.4761862 h 8.4948465 c 1.495294,0 9.963103,0.739528 12.622051,0.739528 h 4 v -1 h -3.5 c -3.479443,0 -10.066424,-0.739528 -12.122051,-0.739528 H 7.0124335 c -0.3931005,0 -3.5326873,-0.545235 -3.5326873,-0.545235 L 3.2565027,3.8541687 2.3117716,3.550018 1.5824865,3.4340322 c 0,0 -0.5173685,-0.3653292 -0.5173685,-0.653301 V 2.4992107 C 1.065118,2.065949 1.3763853,2 1.7395281,2 2.0564558,2 6.619333,1.7395281 7.0124335,1.7395281 H 16.127949 C 18.183576,1.7395281 24.770557,1 28.25,1 h 3.5 V 0 h -4 C 25.091052,0 16.623243,0.73952808 15.127949,0.73952808 H 6.6331025 C 6.2391294,0.73952808 1.2798621,1 1.0034466,1 0.63105536,1 0,1.3758285 0,2.3217479 V 2.8664702 C 0,3.7342367 0.6,3.560706 0.6,4.2961438 v 8.2997802 c 0,0.15724 -0.3,0.128783 -0.3,0.719742 v 0.968996 c 0,0.524789 0.7,0.890083 0.7,1.047868 v 26.257206 c 0,0.131033 -0.3738166,0.177308 -0.3738166,0.426272 L 0.614807,42.578453 C 0.61480696,42.748797 0,43.226709 0,43.357742 v 0.58658 C 0,44.193286 0.27453995,44.323409 0.32992341,44.45 0.2587161,44.560767 0,44.706714 0,44.955678 v 0.58658 c 0,0.131033 0.61480696,0.608945 0.61480696,0.779289 l 0.0113764,0.562445 C 0.6261834,47.132956 1,47.179231 1,47.310264 V 73.56747 c 0,0.157785 -0.7,0.523079 -0.7,1.047868 v 0.968996 c 0,0.590959 0.3,0.562502 0.3,0.719742 v 8.29978 C 0.6,85.339294 0,85.165763 0,86.03353 v 0.544722 C 0,87.524172 0.63105536,87.9 1.0034466,87.9 c 0.2764155,0 5.2356828,0.260472 5.6296559,0.260472 H 15.127949 C 16.623243,88.160472 25.091052,88.9 27.75,88.9 h 4 v -1 h -3.5 c -3.479443,0 -10.066424,-0.739528 -12.122051,-0.739528 H 7.0124335 C 6.619333,87.160472 2.0564558,86.9 1.7395281,86.9 1.3763853,86.9 1.065118,86.834051 1.065118,86.400789 v -0.28152 C 1.065118,85.831297 1.6,85.613146 1.6,85.220779 v -8.817372 c 0,-0.249308 -0.3,-0.412611 -0.3,-0.91483 V 74.7597 C 1.3,74.274699 2,74.061676 2,73.746923 V 47.06917 C 2,46.885723 1.5523571,46.763158 1.5523571,46.618427 L 1.5056901,46.077334 C 1.5056904,45.906487 1,45.670498 1,45.513258 v -0.413766 c 0,-0.11793 0.3501505,-0.149255 0.3501505,-0.149255 l 1.1345942,-2.8e-5 z"
       id="path73"
       sodipodi:nodetypes="ccccccccccccccccccccccccccccccccccccccccccccccccccccccccccccccccccccccccccccccccccccccccccccccccccccccccccc"
       inkscape:label="leftborderframe" /><path
       style="display:inline;fill:#87744d;fill-opacity:1;stroke-width:0.264583"
       d="m 31.7,45.860943 h 25.611637 c 0.131033,0 0.177308,0.373817 0.426272,0.373817 l 0.562445,0.01138 c 0.170344,0 0.648256,0.614807 0.779289,0.614807 h 0.58658 c 0.248964,0 0.505678,-0.329923 0.505678,-0.329923 v -1.020233 l 4.9e-5,-0.920648 v -0.2662 l -4.9e-5,-0.920648 v -1.020233 c 0,0 -0.256714,-0.329923 -0.505678,-0.329923 h -0.58658 c -0.131033,0 -0.608945,0.614807 -0.779289,0.614807 l -0.562445,0.01138 c -0.248964,0 -0.295239,0.373817 -0.426272,0.373817 H 31.7 v 1 l 25.852777,3e-6 c 0.183447,0 0.306012,-0.447643 0.450743,-0.447643 l 0.541093,-0.04667 c 0.170847,0 0.406836,-0.50569 0.564076,-0.50569 h 0.422561 l 0.04212,0.350151 0.0088,0.776722 v 0.554054 l -0.0088,0.776722 -0.04212,0.350151 h -0.422561 c -0.15724,0 -0.393229,-0.50569 -0.564076,-0.50569 l -0.541093,-0.04667 c -0.144731,0 -0.267296,-0.447643 -0.450743,-0.447643 H 31.7 Z"
       id="path29"
       sodipodi:nodetypes="ccccccccccccccccccccccccccccccccccc"
       inkscape:label="rightcenterrod" /><path
       style="display:inline;fill:#87744d;fill-opacity:1;stroke-width:0.264583"
       d="m 61.015255,43.949791 1.134595,-2.7e-5 c -10e-7,0 0.35015,-0.02253 0.35015,-0.140461 v -0.422561 c 0,-0.15724 -0.50569,-0.393229 -0.50569,-0.564076 L 61.94764,42.281573 C 61.947643,42.136842 61.5,42.014277 61.5,41.83083 V 15.153077 c 0,-0.314753 0.7,-0.527776 0.7,-1.012777 v -0.728877 c 0,-0.502219 -0.3,-0.665522 -0.3,-0.91483 V 4.3859886 L 61.393335,4.3142936 60.903657,4.5231397 60.693055,8.3973264 60.693041,43.95 Z M 60.693027,44.95 60.693,85.603847 l -0.451647,0.344505 -0.978332,0.372481 c 0,0 -5.235683,0.260472 -5.629656,0.260472 h -5.868589 c -1.495294,0 -9.002966,0.739528 -11.661914,0.739528 H 31.7 v -1 h 3.902862 c 3.479443,0 9.106287,-0.739528 11.161914,-0.739528 h 6.489258 c 0.393101,0 5.272906,-0.260472 5.272906,-0.260472 L 59.3322,85.030982 59.693,84.756311 V 8.4347298 c 0,0 -2.629116,0.4761862 -2.826103,0.4761862 h -8.494846 c -1.495294,0 -9.963103,0.739528 -12.622051,0.739528 H 31.7 v -1 h 3.55 c 3.479443,0 10.066424,-0.739528 12.122051,-0.739528 h 9.115515 c 0.393101,0 3.532688,-0.545235 3.532688,-0.545235 L 60.243497,3.8541687 61.188228,3.550018 61.917513,3.4340322 c 0,0 0.517369,-0.3653292 0.517369,-0.653301 V 2.4992107 C 62.434882,2.065949 62.123615,2 61.760472,2 61.443544,2 56.880667,1.7395281 56.487566,1.7395281 H 47.372051 C 45.316424,1.7395281 38.729443,1 35.25,1 H 31.7 V 0 h 4.05 c 2.658948,0 11.126757,0.73952808 12.622051,0.73952808 h 8.494846 C 57.260871,0.73952808 62.220138,1 62.496553,1 62.868945,1 63.5,1.3758285 63.5,2.3217479 v 0.5447223 c 0,0.8677665 -0.6,0.6942358 -0.6,1.4296736 v 8.2997802 c 0,0.15724 0.3,0.128783 0.3,0.719742 v 0.968996 c 0,0.524789 -0.7,0.890083 -0.7,1.047868 v 26.257206 c 0,0.131033 0.373817,0.177308 0.373817,0.426272 l 0.01138,0.562445 c 0,0.170344 0.614807,0.648256 0.614807,0.779289 v 0.58658 c 0,0.248964 -0.27454,0.379087 -0.329923,0.505678 0.07121,0.110767 0.329923,0.256714 0.329923,0.505678 v 0.58658 c 0,0.131033 -0.614807,0.608945 -0.614807,0.779289 l -0.01138,0.562445 c 0,0.248964 -0.373817,0.295239 -0.373817,0.426272 V 73.56747 c 0,0.157785 0.7,0.523079 0.7,1.047868 v 0.968996 c 0,0.590959 -0.3,0.562502 -0.3,0.719742 v 8.29978 c 0,0.735438 0.6,0.561907 0.6,1.429674 v 0.544722 C 63.5,87.524172 62.868945,87.9 62.496553,87.9 c -0.276415,0 -5.235682,0.260472 -5.629656,0.260472 H 48.372051 C 46.876757,88.160472 38.408948,88.9 35.75,88.9 H 31.7 v -1 h 3.55 c 3.479443,0 10.066424,-0.739528 12.122051,-0.739528 h 9.115515 c 0.393101,0 4.955978,-0.260472 5.272906,-0.260472 0.363143,0 0.67441,-0.06595 0.67441,-0.499211 v -0.28152 C 62.434882,85.831297 61.9,85.613146 61.9,85.220779 v -8.817372 c 0,-0.249308 0.3,-0.412611 0.3,-0.91483 V 74.7597 c 0,-0.485001 -0.7,-0.698024 -0.7,-1.012777 V 47.06917 c 0,-0.183447 0.447643,-0.306012 0.447643,-0.450743 l 0.04667,-0.541093 c 0,-0.170847 0.50569,-0.406836 0.50569,-0.564076 v -0.413766 c 0,-0.11793 -0.350151,-0.149255 -0.350151,-0.149255 l -1.134594,-2.8e-5 z"
       id="path30"
       sodipodi:nodetypes="ccccccccccccccccccccccccccccccccccccccccccccccccccccccccccccccccccccccccccccccccccccccccccccccccccccccccccc"
       inkscape:label="rightborderframe" /><circle
       style="display:inline;fill:#918854;fill-opacity:1;stroke:#87744d;stroke-width:0.792793;stroke-linecap:butt;stroke-linejoin:round;stroke-dasharray:none;stroke-opacity:1"
       id="path7"
       cx="2.8324502"
       cy="44.495041"
       r="0.99554509"
       inkscape:label="leftbolt" /><circle
       style="display:inline;fill:#918854;fill-opacity:1;stroke:#87744d;stroke-width:1;stroke-linecap:butt;stroke-linejoin:round;stroke-dasharray:none;stroke-opacity:1"
       id="circle33"
       cx="-60.832455"
       cy="4.507432"
       r="1.4327978"
       transform="scale(-1,1)"
       inkscape:label="cornerbolt" /><text
       xml:space="preserve"
       style="font-size:4.58611px;text-align:start;writing-mode:lr-tb;direction:ltr;text-anchor:start;display:inline;fill:#e9d1f4;fill-opacity:1;stroke:#704d87;stroke-width:0;stroke-linecap:butt;stroke-linejoin:round;stroke-dasharray:none;stroke-opacity:1"
       x="13.515208"
       y="6.2193213"
       id="text17"
       inkscape:label="title"><tspan
         sodipodi:role="line"
         id="tspan16"
         style="font-size:4.58611px;fill:#dcd8c2;fill-opacity:1;stroke:#704d87;stroke-width:0;stroke-dasharray:none;stroke-opacity:1"
         x="13.515208"
         y="6.2193213">Spacetime Warp</tspan></text><text
       xml:space="preserve"
       style="font-size:4.23333px;text-align:center;writing-mode:lr-tb;direction:ltr;text-anchor:middle;display:inline;fill:#dcd8c2;fill-opacity:1;stroke:#704d87;stroke-width:0;stroke-linecap:butt;stroke-linejoin:round;stroke-dasharray:none;stroke-opacity:1"
       x="31.410919"
       y="52.384827"
       id="text28"
       inkscape:label="description"><tspan
         sodipodi:role="line"
         style="font-size:4.23333px;text-align:center;text-anchor:middle;fill:#dcd8c2;fill-opacity:1;stroke-width:0"
         x="31.410919"
         y="52.384827"
         id="tspan19">Choose two target</tspan><tspan
         sodipodi:role="line"
         style="font-size:4.23333px;text-align:center;text-anchor:middle;fill:#dcd8c2;fill-opacity:1;stroke-width:0"
         x="31.410919"
         y="57.676491"
         id="tspan20">friendlies to swap</tspan><tspan
         sodipodi:role="line"
         style="font-size:4.23333px;text-align:center;text-anchor:middle;fill:#dcd8c2;fill-opacity:1;stroke-width:0"
         x="31.410919"
         y="62.968151"
         id="tspan25">positions.</tspan><tspan
         sodipodi:role="line"
         style="font-size:4.23333px;text-align:center;text-anchor:middle;fill:#dcd8c2;fill-opacity:1;stroke-width:0"
         x="31.410919"
         y="68.259811"
         id="tspan26">Draw a card.</tspan><tspan
         sodipodi:role="line"
         style="font-style:italic;font-variant:normal;font-weight:normal;font-stretch:normal;font-size:4.23333px;font-family:sans-serif;-inkscape-font-specification:'sans-serif Italic';text-align:center;text-anchor:middle;fill:#dcd8c2;fill-opacity:1;stroke-width:0"
         x="31.410919"
         y="73.551476"
         id="tspan27">(This may restore</tspan><tspan
         sodipodi:role="line"
         style="font-style:italic;font-variant:normal;font-weight:normal;font-stretch:normal;font-size:4.23333px;font-family:sans-serif;-inkscape-font-specification:'sans-serif Italic';text-align:center;text-anchor:middle;fill:#dcd8c2;fill-opacity:1;stroke-width:0"
         x="31.410919"
         y="78.84314"
         id="tspan28">an action)</tspan></text><circle
       style="display:inline;fill:#918854;fill-opacity:1;stroke:#87744d;stroke-width:0.792793;stroke-linecap:butt;stroke-linejoin:round;stroke-dasharray:none;stroke-opacity:1"
       id="circle34"
       cx="60.577763"
       cy="44.495041"
       r="0.99554509"
       inkscape:label="rightbolt" /><path
       style="display:inline;fill:#87744d;fill-opacity:1;stroke-width:0.264583"
       d="m 2.4847447,43.949791 -1.1345942,-2.7e-5 C 1.3501505,43.949764 1,43.927233 1,43.809303 v -0.422561 c 0,-0.15724 0.5056904,-0.393229 0.5056901,-0.564076 l 0.046667,-0.541093 C 1.5523571,42.136842 2,42.014277 2,41.83083 V 15.153077 C 2,14.838324 1.3,14.625301 1.3,14.1403 v -0.728877 c 0,-0.502219 0.3,-0.665522 0.3,-0.91483 V 4.3859886 L 2.1066647,4.3142936 2.5963427,4.5231397 2.8069454,8.3973264 2.8069591,43.95 Z M 2.8069727,44.95 2.807,85.603847 l 0.451647,0.344505 0.9783317,0.372481 c 0,0 5.2356828,0.260472 5.6296559,0.260472 h 5.8685894 c 1.495294,0 9.002966,0.739528 11.661914,0.739528 H 31.75 v -1 h -3.852862 c -3.479443,0 -9.106287,-0.739528 -11.161914,-0.739528 h -6.489258 c -0.3931009,0 -5.2729058,-0.260472 -5.2729058,-0.260472 L 4.1677999,85.030982 3.807,84.756311 V 8.4347298 c 0,0 2.6291159,0.4761862 2.8261025,0.4761862 h 8.4948465 c 1.495294,0 9.963103,0.739528 12.622051,0.739528 h 4 v -1 h -3.5 c -3.479443,0 -10.066424,-0.739528 -12.122051,-0.739528 H 7.0124335 c -0.3931005,0 -3.5326873,-0.545235 -3.5326873,-0.545235 L 3.2565027,3.8541687 2.3117716,3.550018 1.5824865,3.4340322 c 0,0 -0.5173685,-0.3653292 -0.5173685,-0.653301 V 2.4992107 C 1.065118,2.065949 1.3763853,2 1.7395281,2 2.0564558,2 6.619333,1.7395281 7.0124335,1.7395281 H 16.127949 C 18.183576,1.7395281 24.770557,1 28.25,1 h 3.5 V 0 h -4 C 25.091052,0 16.623243,0.73952808 15.127949,0.73952808 H 6.6331025 C 6.2391294,0.73952808 1.2798621,1 1.0034466,1 0.63105536,1 0,1.3758285 0,2.3217479 V 2.8664702 C 0,3.7342367 0.6,3.560706 0.6,4.2961438 v 8.2997802 c 0,0.15724 -0.3,0.128783 -0.3,0.719742 v 0.968996 c 0,0.524789 0.7,0.890083 0.7,1.047868 v 26.257206 c 0,0.131033 -0.3738166,0.177308 -0.3738166,0.426272 L 0.614807,42.578453 C 0.61480696,42.748797 0,43.226709 0,43.357742 v 0.58658 C 0,44.193286 0.27453995,44.323409 0.32992341,44.45 0.2587161,44.560767 0,44.706714 0,44.955678 v 0.58658 c 0,0.131033 0.61480696,0.608945 0.61480696,0.779289 l 0.0113764,0.562445 C 0.6261834,47.132956 1,47.179231 1,47.310264 V 73.56747 c 0,0.157785 -0.7,0.523079 -0.7,1.047868 v 0.968996 c 0,0.590959 0.3,0.562502 0.3,0.719742 v 8.29978 C 0.6,85.339294 0,85.165763 0,86.03353 v 0.544722 C 0,87.524172 0.63105536,87.9 1.0034466,87.9 c 0.2764155,0 5.2356828,0.260472 5.6296559,0.260472 H 15.127949 C 16.623243,88.160472 25.091052,88.9 27.75,88.9 h 4 v -1 h -3.5 c -3.479443,0 -10.066424,-0.739528 -12.122051,-0.739528 H 7.0124335 C 6.619333,87.160472 2.0564558,86.9 1.7395281,86.9 1.3763853,86.9 1.065118,86.834051 1.065118,86.400789 v -0.28152 C 1.065118,85.831297 1.6,85.613146 1.6,85.220779 v -8.817372 c 0,-0.249308 -0.3,-0.412611 -0.3,-0.91483 V 74.7597 C 1.3,74.274699 2,74.061676 2,73.746923 V 47.06917 C 2,46.885723 1.5523571,46.763158 1.5523571,46.618427 L 1.5056901,46.077334 C 1.5056904,45.906487 1,45.670498 1,45.513258 v -0.413766 c 0,-0.11793 0.3501505,-0.149255 0.3501505,-0.149255 l 1.1345942,-2.8e-5 z"
       id="path34"
       sodipodi:nodetypes="ccccccccccccccccccccccccccccccccccccccccccccccccccccccccccccccccccccccccccccccccccccccccccccccccccccccccccc"
       inkscape:label="leftborderframe" /><path
       style="display:inline;fill:#87744d;fill-opacity:1;stroke-width:0.264583"
       d="m 61.015255,43.949791 1.134595,-2.7e-5 c -10e-7,0 0.35015,-0.02253 0.35015,-0.140461 v -0.422561 c 0,-0.15724 -0.50569,-0.393229 -0.50569,-0.564076 L 61.94764,42.281573 C 61.947643,42.136842 61.5,42.014277 61.5,41.83083 V 15.153077 c 0,-0.314753 0.7,-0.527776 0.7,-1.012777 v -0.728877 c 0,-0.502219 -0.3,-0.665522 -0.3,-0.91483 V 4.3859886 L 61.393335,4.3142936 60.903657,4.5231397 60.693055,8.3973264 60.693041,43.95 Z M 60.693027,44.95 60.693,85.603847 l -0.451647,0.344505 -0.978332,0.372481 c 0,0 -5.235683,0.260472 -5.629656,0.260472 h -5.868589 c -1.495294,0 -9.002966,0.739528 -11.661914,0.739528 H 31.7 v -1 h 3.902862 c 3.479443,0 9.106287,-0.739528 11.161914,-0.739528 h 6.489258 c 0.393101,0 5.272906,-0.260472 5.272906,-0.260472 L 59.3322,85.030982 59.693,84.756311 V 8.4347298 c 0,0 -2.629116,0.4761862 -2.826103,0.4761862 h -8.494846 c -1.495294,0 -9.963103,0.739528 -12.622051,0.739528 H 31.7 v -1 h 3.55 c 3.479443,0 10.066424,-0.739528 12.122051,-0.739528 h 9.115515 c 0.393101,0 3.532688,-0.545235 3.532688,-0.545235 L 60.243497,3.8541687 61.188228,3.550018 61.917513,3.4340322 c 0,0 0.517369,-0.3653292 0.517369,-0.653301 V 2.4992107 C 62.434882,2.065949 62.123615,2 61.760472,2 61.443544,2 56.880667,1.7395281 56.487566,1.7395281 H 47.372051 C 45.316424,1.7395281 38.729443,1 35.25,1 H 31.7 V 0 h 4.05 c 2.658948,0 11.126757,0.73952808 12.622051,0.73952808 h 8.494846 C 57.260871,0.73952808 62.220138,1 62.496553,1 62.868945,1 63.5,1.3758285 63.5,2.3217479 v 0.5447223 c 0,0.8677665 -0.6,0.6942358 -0.6,1.4296736 v 8.2997802 c 0,0.15724 0.3,0.128783 0.3,0.719742 v 0.968996 c 0,0.524789 -0.7,0.890083 -0.7,1.047868 v 26.257206 c 0,0.131033 0.373817,0.177308 0.373817,0.426272 l 0.01138,0.562445 c 0,0.170344 0.614807,0.648256 0.614807,0.779289 v 0.58658 c 0,0.248964 -0.27454,0.379087 -0.329923,0.505678 0.07121,0.110767 0.329923,0.256714 0.329923,0.505678 v 0.58658 c 0,0.131033 -0.614807,0.608945 -0.614807,0.779289 l -0.01138,0.562445 c 0,0.248964 -0.373817,0.295239 -0.373817,0.426272 V 73.56747 c 0,0.157785 0.7,0.523079 0.7,1.047868 v 0.968996 c 0,0.590959 -0.3,0.562502 -0.3,0.719742 v 8.29978 c 0,0.735438 0.6,0.561907 0.6,1.429674 v 0.544722 C 63.5,87.524172 62.868945,87.9 62.496553,87.9 c -0.276415,0 -5.235682,0.260472 -5.629656,0.260472 H 48.372051 C 46.876757,88.160472 38.408948,88.9 35.75,88.9 H 31.7 v -1 h 3.55 c 3.479443,0 10.066424,-0.739528 12.122051,-0.739528 h 9.115515 c 0.393101,0 4.955978,-0.260472 5.272906,-0.260472 0.363143,0 0.67441,-0.06595 0.67441,-0.499211 v -0.28152 C 62.434882,85.831297 61.9,85.613146 61.9,85.220779 v -8.817372 c 0,-0.249308 0.3,-0.412611 0.3,-0.91483 V 74.7597 c 0,-0.485001 -0.7,-0.698024 -0.7,-1.012777 V 47.06917 c 0,-0.183447 0.447643,-0.306012 0.447643,-0.450743 l 0.04667,-0.541093 c 0,-0.170847 0.50569,-0.406836 0.50569,-0.564076 v -0.413766 c 0,-0.11793 -0.350151,-0.149255 -0.350151,-0.149255 l -1.134594,-2.8e-5 z"
       id="path35"
       sodipodi:nodetypes="ccccccccccccccccccccccccccccccccccccccccccccccccccccccccccccccccccccccccccccccccccccccccccccccccccccccccccc"
       inkscape:label="rightborderframe" /></g><g
     inkscape:groupmode="layer"
     id="g37"
     inkscape:label="manapanel"
     style="display:inline"><circle
       style="display:inline;fill:#918854;fill-opacity:1;stroke:#87744d;stroke-width:1;stroke-linecap:butt;stroke-linejoin:round;stroke-dasharray:none;stroke-opacity:1"
       id="circle36"
       cx="3.2151253"
       cy="3.6753912"
       r="7.6197009" /><circle
       style="display:inline;fill:#5b3b65;fill-opacity:1;stroke:#87744d;stroke-width:1;stroke-linecap:butt;stroke-linejoin:round;stroke-dasharray:none;stroke-opacity:1"
       id="circle37"
       cx="3.2151253"
       cy="3.6753912"
       r="5.8024316" /><text
       xml:space="preserve"
       style="font-style:normal;font-variant:normal;font-weight:normal;font-stretch:normal;font-size:8.46667px;font-family:sans-serif;-inkscape-font-specification:sans-serif;text-align:center;writing-mode:lr-tb;direction:ltr;text-anchor:middle;display:inline;fill:#493d2b;fill-opacity:1;stroke:none;stroke-width:0;stroke-linecap:butt;stroke-linejoin:round;stroke-dasharray:none;stroke-opacity:1"
       x="2.9434893"
       y="6.1846352"
       id="text50"><tspan
         sodipodi:role="line"
         id="tspan50"
         style="font-size:8.46667px;fill:#ffffff;fill-opacity:1;stroke-width:0"
         x="2.9434893"
         y="6.1846352">1</tspan></text></g></svg>
