<?xml version="1.0" encoding="UTF-8" standalone="no"?>
<!-- Created with Inkscape (http://www.inkscape.org/) -->

<svg
   width="63.5mm"
   height="88.900002mm"
   viewBox="0 0 63.5 88.900002"
   version="1.1"
   id="svg1"
   inkscape:version="1.4.2 (f4327f4, 2025-05-13)"
   sodipodi:docname="brass_instrument_card_front_preserved.svg"
   inkscape:export-filename="brass_instrument_card_front_vectors.png"
   inkscape:export-xdpi="360"
   inkscape:export-ydpi="360"
   xml:space="preserve"
   xmlns:inkscape="http://www.inkscape.org/namespaces/inkscape"
   xmlns:sodipodi="http://sodipodi.sourceforge.net/DTD/sodipodi-0.dtd"
   xmlns="http://www.w3.org/2000/svg"
   xmlns:svg="http://www.w3.org/2000/svg"><sodipodi:namedview
     id="namedview1"
     pagecolor="#ffffff"
     bordercolor="#000000"
     borderopacity="0.25"
     inkscape:showpageshadow="2"
     inkscape:pageopacity="0.0"
     inkscape:pagecheckerboard="0"
     inkscape:deskcolor="#d1d1d1"
     inkscape:document-units="mm"
     inkscape:zoom="4"
     inkscape:cx="-46.5"
     inkscape:cy="-2.5"
     inkscape:window-width="2560"
     inkscape:window-height="1377"
     inkscape:window-x="-8"
     inkscape:window-y="-8"
     inkscape:window-maximized="1"
     inkscape:current-layer="layer3" /><defs
     id="defs1"><inkscape:path-effect
       effect="spiro"
       id="path-effect1"
       is_visible="true"
       lpeversion="1" /><inkscape:path-effect
       effect="fillet_chamfer"
       id="path-effect2"
       is_visible="true"
       lpeversion="1"
       nodesatellites_param="F,0,0,1,0,2.1166667,0,1 @ F,0,0,1,0,2.1166667,0,1 @ F,0,0,1,0,2.1166667,0,1 @ F,0,0,1,0,2.1166667,0,1"
       radius="8"
       unit="px"
       method="auto"
       mode="F"
       chamfer_steps="1"
       flexible="false"
       use_knot_distance="true"
       apply_no_radius="true"
       apply_with_radius="true"
       only_selected="false"
       hide_knots="false" /></defs><g
     inkscape:groupmode="layer"
     id="layer1"
     inkscape:label="outline"
     style="display:inline"><path
       style="display:none;fill:#1b1b1b;fill-opacity:1;stroke-width:0.269126"
       d="M 31.663075,64.530925 31.594018,14.225381 31.75,0.38081969 v -1.01425041 h -4.0804 c -2.712392,0 -11.350405,0.75006665 -12.875755,0.75006665 H 6.1282528 c -0.4018919,0 -5.46084049,0.26418376 -5.74281194,0.26418376 -0.37987631,0 -1.02361588,0.38118422 -1.02361588,1.34058331 v 0.5524848 c 0,0.8801326 0.61206,0.704129 0.61206,1.4500471 V 12.14199 c 0,0.159481 -0.30603,0.130618 -0.30603,0.729999 v 0.982804 c 0,0.532268 0.71407,0.902768 0.71407,1.062801 v 26.631382 c 0,0.1329 -0.3813303176,0.179835 -0.3813303176,0.432347 l -0.0116051024,0.57046 c -4e-8,0.172771 -0.62716462,0.657494 -0.62716462,0.790394 v 0.594939 c 0,0.252511 0.2800582,0.384489 0.33655487,0.512884 -0.0726386,0.112345 -0.33655487,0.260373 -0.33655487,0.512884 v 0.594939 c 0,0.1329 0.62716458,0.617623 0.62716458,0.790394 l 0.011605102,0.57046 c 4.04e-8,0.252512 0.381330358,0.299447 0.381330358,0.432347 v 26.631382 c 0,0.160033 -0.71407,0.530533 -0.71407,1.062801 v 0.982804 c 0,0.599381 0.30603,0.570518 0.30603,0.729999 v 8.418055 c 0,0.745918 -0.61206,0.569914 -0.61206,1.450047 v 0.552485 c 0,0.9594 0.64373957,1.340583 1.02361588,1.340583 0.28197145,0 5.34092004,0.264184 5.74281194,0.264184 h 8.6655922 c 1.52535,0 10.163363,0.750067 12.875755,0.750067 H 31.75"
       id="path3"
       sodipodi:nodetypes="cccccccccccccccccccccccccccccccccccccc"
       inkscape:label="leftborderframe" /><path
       style="display:none;fill:#1b1b1b;fill-opacity:1;stroke-width:0.269126"
       d="m 61.603487,43.942663 1.157399,-2.8e-5 c -10e-7,0 0.357189,-0.02285 0.357189,-0.142462 V 43.37159 c 0,-0.159481 -0.515854,-0.398832 -0.515854,-0.572114 l -0.04761,-0.548804 c 3e-6,-0.146793 -0.456637,-0.271105 -0.456637,-0.457166 V 14.735584 c 0,-0.319239 0.71407,-0.535297 0.71407,-1.02721 V 12.96911 c 0,-0.509376 -0.30603,-0.675005 -0.30603,-0.927866 V 3.81506 l -0.516846,-0.072717 -0.49952,0.2118223 -0.214835,3.9293954 -1.5e-5,36.0593143 z m -0.328705,1.014462 -2.8e-5,41.233181 -0.460724,0.349414 -0.997997,0.37779 c 0,0 -5.340921,0.264183 -5.742812,0.264183 h -5.986548 c -1.525349,0 -9.183926,0.750067 -11.896318,0.750067 h -4.49136 v -1.01425 h 3.98131 c 3.549379,0 9.289322,-0.750067 11.386268,-0.750067 h 6.619692 c 0.401002,0 5.378891,-0.264184 5.378891,-0.264184 l 0.821446,-0.293981 0.368052,-0.278585 V 7.9214975 c 0,0 -2.681961,0.482972 -2.882907,0.482972 h -8.665593 c -1.525349,0 -10.163362,0.7500666 -12.875754,0.7500666 H 31.698995 V 8.1402857 h 3.621355 c 3.549379,0 10.268759,-0.7500666 12.365704,-0.7500666 h 9.298737 c 0.401003,0 3.603696,-0.5530049 3.603696,-0.5530049 l 0.227729,-3.5615527 0.96372,-0.308485 0.743944,-0.1176387 c 0,0 0.527768,-0.3705352 0.527768,-0.6626108 V 1.9013948 c 0,-0.4394359 -0.317523,-0.5063247 -0.687965,-0.5063247 -0.323299,0 -4.977889,-0.2641838 -5.378892,-0.2641838 h -9.298737 c -2.096945,0 -8.816325,-0.75006661 -12.365704,-0.75006661 H 31.698995 V -0.63343072 H 35.8304 c 2.712392,0 11.350405,0.75006665 12.875754,0.75006665 h 8.665593 c 0.401893,0 5.46084,0.26418376 5.742812,0.26418376 0.379876,0 1.023616,0.38118422 1.023616,1.34058331 v 0.5524848 c 0,0.8801326 -0.61206,0.704129 -0.61206,1.4500471 V 12.14199 c 0,0.159481 0.30603,0.130618 0.30603,0.729999 v 0.982804 c 0,0.532268 -0.71407,0.902768 -0.71407,1.062801 v 26.631382 c 0,0.1329 0.381331,0.179835 0.381331,0.432347 l 0.0116,0.57046 c 0,0.172771 0.627165,0.657494 0.627165,0.790394 v 0.594939 c 0,0.252511 -0.280058,0.384489 -0.336554,0.512884 0.07264,0.112345 0.336554,0.260373 0.336554,0.512884 v 0.594939 c 0,0.1329 -0.627165,0.617623 -0.627165,0.790394 l -0.0116,0.57046 c 0,0.252512 -0.381331,0.299447 -0.381331,0.432347 v 26.631382 c 0,0.160033 0.71407,0.530533 0.71407,1.062801 v 0.982804 c 0,0.599381 -0.30603,0.570518 -0.30603,0.729999 v 8.418055 c 0,0.745918 0.61206,0.569914 0.61206,1.450047 v 0.552485 c 0,0.9594 -0.64374,1.340583 -1.023616,1.340583 -0.281972,0 -5.340919,0.264184 -5.742812,0.264184 h -8.665593 c -1.525349,0 -10.163362,0.750067 -12.875754,0.750067 H 31.698995 V 88.51918 h 3.621355 c 3.549379,0 10.268759,-0.750067 12.365704,-0.750067 h 9.298737 c 0.401003,0 5.055593,-0.264183 5.378892,-0.264183 0.370442,0 0.687965,-0.06689 0.687965,-0.506325 v -0.285532 c 0,-0.292076 -0.545633,-0.513336 -0.545633,-0.911293 v -8.943024 c 0,-0.252861 0.30603,-0.41849 0.30603,-0.927866 v -0.739264 c 0,-0.491913 -0.71407,-0.707971 -0.71407,-1.02721 V 47.106494 c 0,-0.186061 0.45664,-0.310373 0.45664,-0.457166 l 0.04761,-0.548804 c 0,-0.173282 0.515854,-0.412633 0.515854,-0.572114 v -0.419663 c 0,-0.11961 -0.357188,-0.151381 -0.357188,-0.151381 l -1.1574,-2.9e-5 z"
       id="path4"
       sodipodi:nodetypes="ccccccccccccccccccccccccccccccccccccccccccccccccccccccccccccccccccccccccccccccccccccccccccccccccccccccccccc"
       inkscape:label="rightborderframe" /><path
       style="display:none;fill:#1b1b1b;fill-opacity:1;stroke-width:0.269126"
       d="M 31.663075,64.530925 31.594018,14.225381 31.75,0.38081969 v -1.01425041 h -4.0804 c -2.712392,0 -11.350405,0.75006665 -12.875755,0.75006665 H 6.1282528 c -0.4018919,0 -5.46084049,0.26418376 -5.74281194,0.26418376 -0.37987631,0 -1.02361588,0.38118422 -1.02361588,1.34058331 v 1.5281359 c 0,0.8801326 0.61206,0.704129 0.61206,1.4500471 v 7.243966 c 0,0.159481 -0.42178521,0.130618 -0.42178521,0.729999 v 2.272648 c 0,0.532268 0.82982521,0.902768 0.82982521,1.062801 v 25.043882 c 0,0.1329 -0.3813303176,0.179835 -0.3813303176,0.432347 L -0.01101044,42.171444 c -4e-8,0.172771 -0.7925292,0.657494 -0.7925292,0.790394 v 0.975278 c 0,0.252511 0.18083945,0.384489 0.23733612,0.512884 -0.0726386,0.112345 -0.23733612,0.260373 -0.23733612,0.512884 v 1.239861 c 0,0.1329 0.79252916,0.617623 0.79252916,0.790394 l 0.011605102,0.719288 c 4.04e-8,0.252512 0.381330358,0.299447 0.381330358,0.432347 v 24.944663 c 0,0.160033 -0.79675229,0.712434 -0.79675229,1.244702 v 1.908846 c 0,0.599381 0.38871229,0.570518 0.38871229,0.729999 v 7.078602 c 0,0.745918 -0.72781521,0.569914 -0.72781521,1.450047 v 1.676964 c 0,0.9594 0.75949478,1.340583 1.13937109,1.340583 0.28197145,0 5.34092004,0.264184 5.74281194,0.264184 h 8.6655922 c 1.52535,0 10.163363,0.750067 12.875755,0.750067 H 31.75"
       id="path5"
       sodipodi:nodetypes="cccccccccccccccccccccccccccccccccccccc"
       inkscape:label="leftborderframe" /><path
       style="display:inline;fill:#1b1b1b;fill-opacity:1;stroke-width:0.269126"
       d="M 31.75,87.355743 25.598437,87.777633 16.933333,86.47973 2.2969687,85.974732 2.711201,6.8825738 31.75,1.8775291 v -2.51095982 h -4.0804 c -2.712392,0 -11.350405,0.75006665 -12.875755,0.75006665 H 6.1282528 c -0.4018919,0 -5.46084049,0.26418376 -5.74281194,0.26418376 -0.37987631,0 -1.02361588,0.38118422 -1.02361588,1.34058331 v 1.5281359 c 0,0.8801326 0.61206,0.704129 0.61206,1.4500471 v 7.162115 c 0,0.405035 -0.42178521,0.434637 -0.42178521,0.81185 v 2.272648 C -0.44790023,15.285499 0.3,15.673571 0.3,16.009 v 24.77103 c 0,0.727769 -1.0099953,1.825705 -1.0099953,2.181808 v 3.030432 c 0,0.42168 1.0099953,1.331534 1.0099953,2.135036 v 24.962131 c 0,0.382201 -0.71482731,0.864444 -0.71482731,1.244702 v 1.908846 c 0,0.283669 0.38871229,0.441895 0.38871229,0.729999 v 7.078602 c 0,0.535443 -0.64596392,0.838854 -0.64596392,1.450047 v 1.676964 c 0,0.748925 0.67764349,1.340583 1.0575198,1.340583 0.28197145,0 5.34092004,0.264184 5.74281194,0.264184 h 8.6655922 c 1.52535,0 10.163363,0.750067 12.875755,0.750067 H 31.75"
       id="path8"
       sodipodi:nodetypes="cccccccccccccccccccccccccccccccccc"
       inkscape:label="leftborderframe" /><path
       style="display:inline;fill:#1b1b1b;fill-opacity:1;stroke-width:0.269126"
       d="m 31.7,87.355743 6.201563,0.42189 L 46.566667,86.47973 61.203031,85.974732 60.788799,6.8825738 31.7,1.8775291 v -2.51095982 h 4.1304 c 2.712392,0 11.350405,0.75006665 12.875755,0.75006665 h 8.665592 c 0.401892,0 5.46084,0.26418376 5.742812,0.26418376 0.379876,0 1.023616,0.38118422 1.023616,1.34058331 v 1.5281359 c 0,0.8801326 -0.61206,0.704129 -0.61206,1.4500471 v 7.162115 c 0,0.405035 0.421785,0.434637 0.421785,0.81185 v 2.272648 c 0,0.3393 -0.7479,0.727372 -0.7479,1.062801 v 24.77103 c 0,0.727769 1.009995,1.825705 1.009995,2.181808 v 3.030432 c 0,0.42168 -1.009995,1.331534 -1.009995,2.135036 v 24.962131 c 0,0.382201 0.714827,0.864444 0.714827,1.244702 v 1.908846 c 0,0.283669 -0.388712,0.441895 -0.388712,0.729999 v 7.078602 c 0,0.535443 0.645964,0.838854 0.645964,1.450047 v 1.676964 c 0,0.748925 -0.677644,1.340583 -1.05752,1.340583 -0.281972,0 -5.34092,0.264184 -5.742812,0.264184 h -8.665592 c -1.52535,0 -10.163363,0.750067 -12.875755,0.750067 H 31.7"
       id="path17"
       sodipodi:nodetypes="cccccccccccccccccccccccccccccccccc"
       inkscape:label="leftborderframe" /><circle
       style="fill:#918854;fill-opacity:1;stroke:#1b1b1b;stroke-width:2.416;stroke-linejoin:bevel;stroke-dasharray:none;stroke-opacity:1"
       id="circle20"
       cx="3.2576823"
       cy="-5.0766926"
       r="2.834342" /></g><g
     inkscape:groupmode="layer"
     id="layer2"
     inkscape:label="Layer 1"
     style="display:inline"><path
       style="fill:#201435;fill-opacity:1;stroke:none;stroke-width:1.52592;stroke-linejoin:round"
       d="M 3.0427084,6.7086572 4.4822112,10.161 H 31.75 V 6.1515624 Z"
       id="path9"
       sodipodi:nodetypes="ccccc" /><path
       style="fill:#3c2664;fill-opacity:1;stroke:none;stroke-width:1.44903;stroke-linejoin:round"
       d="M 3.0577304,6.6884199 4.49,10.126174 v 32.436499 l -1.9175308,1.169302 z"
       id="path10"
       sodipodi:nodetypes="ccccc" /><path
       style="fill:#55368e;fill-opacity:1;stroke:none;stroke-width:1.38509;stroke-linejoin:round"
       d="M 3.6014569,42.442417 H 31.75 v 2.920261 l -31.37582265,0.0531 z"
       id="path11"
       sodipodi:nodetypes="ccccc" /><path
       style="fill:#201435;fill-opacity:1;stroke:none;stroke-width:1.52592;stroke-linejoin:round"
       d="M 60.457292,6.7086572 59.017789,10.161 H 31.7 V 6.1515624 Z"
       id="path12"
       sodipodi:nodetypes="ccccc" /><path
       style="fill:#472e77;fill-opacity:1;stroke:none;stroke-width:1.44903;stroke-linejoin:round"
       d="M 60.44227,6.6884199 59.01,10.126174 v 32.436499 l 1.917531,1.169302 z"
       id="path13"
       sodipodi:nodetypes="ccccc" /><path
       style="fill:#55368e;fill-opacity:1;stroke:none;stroke-width:1.38509;stroke-linejoin:round"
       d="M 59.898543,42.442417 H 31.7 v 2.920261 l 31.425823,0.0531 z"
       id="path14"
       sodipodi:nodetypes="ccccc" /></g><g
     inkscape:groupmode="layer"
     id="g72"
     inkscape:label="rectangleofcard"
     style="display:inline"><path
       style="display:none;fill:#918854;fill-opacity:1;stroke:none;stroke-width:0.264999"
       d="m 31.75,88.419031 -4.807985,-0.05237 -2.801551,-0.10473 -7.51444,-0.628385 H 7.1478814 L 0.96876049,87.293174 0.39274072,86.324412 0.44510615,85.774577 0.9949432,85.277104 1.099674,76.322615 0.78548147,75.668049 V 74.516008 L 1.4924148,73.704343 1.5185974,47.207437 1.0734912,46.736148 0.99494312,46.055396 0.41892336,45.348464 0.52365423,44.955721 0.99494312,44.458252 0.52365423,43.646587 0.47128879,43.306211 0.96876041,42.756375 1.099674,41.997076 1.4400493,41.709067 1.5185975,15.107427 0.78548147,14.374311 0.70693332,13.065175 1.0473086,12.541521 1.1520395,3.7964938 0.5236543,2.9848296 0.65456789,1.8066074 0.96876049,1.5185975 6.5194962,1.2567703 15.81436,1.2305876 26.706369,0.44510615 31.75,0.47128875 Z"
       id="path6"
       sodipodi:nodetypes="ccccccccccccccccccccccccccccccccccccc"
       inkscape:label="leftrearmost" /><path
       style="display:none;fill:#918854;fill-opacity:1;stroke:none;stroke-width:0.264999"
       d="m 31.7,88.419031 4.857985,-0.05237 2.801551,-0.10473 7.51444,-0.628385 h 9.478142 l 6.179121,-0.340372 0.57602,-0.968762 -0.05237,-0.549835 -0.549837,-0.497473 -0.104731,-8.954489 0.314192,-0.654566 V 74.516008 L 62.00758,73.704343 61.9814,47.207437 l 0.445107,-0.471289 0.07855,-0.680752 0.576019,-0.706932 -0.104731,-0.392743 -0.471288,-0.497469 0.471288,-0.811665 0.05237,-0.340376 -0.497472,-0.549836 -0.130913,-0.759299 -0.340376,-0.288009 -0.07855,-26.60164 0.733116,-0.733116 0.07855,-1.309136 L 62.452691,12.541521 62.34796,3.7964938 62.976345,2.9848296 62.845432,1.8066074 62.531239,1.5185975 56.980504,1.2567703 47.68564,1.2305876 36.793631,0.44510615 31.7,0.47128875 Z"
       id="path33"
       sodipodi:nodetypes="ccccccccccccccccccccccccccccccccccccc"
       inkscape:label="rightrearmost" /><path
       style="display:none;fill:#1b1b1b;fill-opacity:1;stroke:none;stroke-width:0.264999"
       d="M 3.508484,5.8649282 6.7551405,6.3362172 17.018765,6.4409481 25.606696,7.0169677 31.75,7.1216987 V 43.515674 L 5.9696593,43.568037 5.5507357,43.096751 H 4.9223506 L 4.3463307,42.573096 H 3.3513876 Z"
       id="path1"
       sodipodi:nodetypes="cccccccccccc"
       inkscape:label="leftimgarea" /><path
       style="display:none;fill:#1b1b1b;fill-opacity:1;stroke:none;stroke-width:0.264999"
       d="M 59.991516,5.8649282 56.744859,6.3362172 46.481235,6.4409481 37.893304,7.0169677 31.7,7.1216987 V 43.515674 l 25.830341,0.05236 0.418923,-0.471286 h 0.628385 l 0.57602,-0.523655 h 0.994943 z"
       id="path31"
       sodipodi:nodetypes="cccccccccccc"
       inkscape:label="rightimgarea" /><path
       style="display:inline;fill:#1b1b1b;fill-opacity:1;stroke:#704d87;stroke-width:0;stroke-linecap:butt;stroke-linejoin:round;stroke-dasharray:none;stroke-opacity:1"
       d="M 3.3208237,7.3130779 6.735192,8.0614326 17.352474,7.9678883 27.127856,8.716243 H 35.82748 L 45.55609,8.201749 56.594321,8.0146603 60.055463,7.4533944 62.440843,3.6950012 62.861792,2.8063301 62.815019,1.7305702 62.113437,1.403165 57.20236,1.0757598 46.772165,1.122532 37.838684,0.46772165 H 26.098869 L 16.978296,1.0757598 6.9222807,1.3096207 1.122532,1.4967093 0.56126599,2.0112032 0.70158249,3.2740518 1.683798,3.8820899 2.8531021,4.2094951 Z"
       id="path15"
       inkscape:label="nameplatebacking"
       sodipodi:nodetypes="cccccccccccccccccccccccc" /><path
       style="display:inline;fill:#918854;fill-opacity:1;stroke:none;stroke-width:0;stroke-linecap:butt;stroke-linejoin:round;stroke-dasharray:none;stroke-opacity:1"
       d="m 6.0336096,43.498116 51.4493834,0.04677 0.374177,-0.374176 0.654812,-0.09354 0.420949,-0.467722 1.262848,-0.140316 V 5.4723436 L 60.686887,4.1510299 62.39407,3.4611404 v 8.9802556 l 0.327406,0.795127 v 1.122532 l -0.701582,0.935443 -0.04677,26.192414 0.514495,0.701583 0.04677,0.561266 0.561266,0.701582 -0.561266,0.935442 0.467723,0.795129 -0.467723,0.841899 -0.233859,0.888671 -0.374179,26.426274 0.748356,1.917663 -0.280632,1.543481 0.04677,8.325446 0.09354,2.15152 L 46.281056,87.77967 31.477665,88.46956 17.329085,87.756285 0.70158534,87.417187 1.0289906,85.218896 1.1225349,76.612813 0.70158552,74.975788 1.4967122,73.619393 1.3096237,46.912484 1.0757598,46.210902 0.56126599,45.462547 0.88867116,44.527102 0.46772168,43.778749 0.88867116,42.890077 1.122532,42.001405 1.4499372,41.767545 1.5434815,15.200954 0.841899,14.4526 V 13.189751 L 1.2160764,3.8820897 3.3208236,3.8353176 3.1805073,12.95589 3.3208237,42.422355 4.3965836,42.469125 5.051394,43.21748 5.6594321,43.12393 Z"
       id="path16"
       inkscape:label="to blk image"
       sodipodi:nodetypes="ccccccccccccccccccccccccccccccccccccccccccccccccccccc" /><path
       style="display:inline;fill:#1b1b1b;fill-opacity:1;stroke:none;stroke-width:0.264999"
       d="m 3.4037529,46.395772 h 0.9425778 l 0.5760199,-0.576019 h 0.733116 L 6.1267554,45.296097 31.75,45.348467 V 86.821888 H 25.659065 L 16.704577,85.98404 10.001801,86.03641 4.2939695,85.774584 3.2990261,84.832005 Z"
       id="path2"
       sodipodi:nodetypes="ccccccccccccc"
       inkscape:label="leftdescriptionarea" /><path
       style="display:inline;fill:#1b1b1b;fill-opacity:1;stroke:none;stroke-width:0.264999"
       d="m 60.096247,46.395772 h -0.942578 l -0.57602,-0.576019 H 57.844533 L 57.373245,45.296097 31.7,45.348467 v 41.473421 h 6.140935 l 8.954488,-0.837848 6.702776,0.05237 5.707831,-0.261826 0.994944,-0.942579 z"
       id="path32"
       sodipodi:nodetypes="ccccccccccccc"
       inkscape:label="rightdescriptionarea" /><path
       style="display:inline;fill:#87744d;fill-opacity:1;stroke-width:0.264583"
       d="M 31.75,45.860943 H 6.1883634 c -0.131033,0 -0.177308,0.373817 -0.426272,0.373817 l -0.562445,0.01138 c -0.170344,0 -0.648256,0.614807 -0.779289,0.614807 h -0.58658 c -0.248964,0 -0.505678,-0.329923 -0.505678,-0.329923 v -1.020233 l -4.9e-5,-0.920648 v -0.2662 l 4.9e-5,-0.920648 v -1.020233 c 0,0 0.256714,-0.329923 0.505678,-0.329923 h 0.58658 c 0.131033,0 0.608945,0.614807 0.779289,0.614807 l 0.562445,0.01138 c 0.248964,0 0.295239,0.373817 0.426272,0.373817 H 31.75 v 1 l -25.8027766,3e-6 c -0.183447,0 -0.306012,-0.447643 -0.450743,-0.447643 l -0.541093,-0.04667 c -0.170847,0 -0.406836,-0.50569 -0.564076,-0.50569 h -0.422561 l -0.04212,0.350151 -0.0088,0.776722 v 0.554054 l 0.0088,0.776722 0.04212,0.350151 h 0.422561 c 0.15724,0 0.393229,-0.50569 0.564076,-0.50569 l 0.541093,-0.04667 c 0.144731,0 0.267296,-0.447643 0.450743,-0.447643 H 31.75 Z"
       id="path72"
       sodipodi:nodetypes="ccccccccccccccccccccccccccccccccccc"
       inkscape:label="leftcenterrod" /><path
       style="display:inline;fill:#87744d;fill-opacity:1;stroke-width:0.264583"
       d="m 2.4847447,43.949791 -1.1345942,-2.7e-5 C 1.3501505,43.949764 1,43.927233 1,43.809303 v -0.422561 c 0,-0.15724 0.5056904,-0.393229 0.5056901,-0.564076 l 0.046667,-0.541093 C 1.5523571,42.136842 2,42.014277 2,41.83083 V 15.153077 C 2,14.838324 1.3,14.625301 1.3,14.1403 v -0.728877 c 0,-0.502219 0.3,-0.665522 0.3,-0.91483 V 4.3859886 L 2.1066647,4.3142936 2.5963427,4.5231397 2.8069454,8.3973264 2.8069591,43.95 Z M 2.8069727,44.95 2.807,85.603847 l 0.451647,0.344505 0.9783317,0.372481 c 0,0 5.2356828,0.260472 5.6296559,0.260472 h 5.8685894 c 1.495294,0 9.002966,0.739528 11.661914,0.739528 H 31.75 v -1 h -3.852862 c -3.479443,0 -9.106287,-0.739528 -11.161914,-0.739528 h -6.489258 c -0.3931009,0 -5.2729058,-0.260472 -5.2729058,-0.260472 L 4.1677999,85.030982 3.807,84.756311 V 8.4347298 c 0,0 2.6291159,0.4761862 2.8261025,0.4761862 h 8.4948465 c 1.495294,0 9.963103,0.739528 12.622051,0.739528 h 4 v -1 h -3.5 c -3.479443,0 -10.066424,-0.739528 -12.122051,-0.739528 H 7.0124335 c -0.3931005,0 -3.5326873,-0.545235 -3.5326873,-0.545235 L 3.2565027,3.8541687 2.3117716,3.550018 1.5824865,3.4340322 c 0,0 -0.5173685,-0.3653292 -0.5173685,-0.653301 V 2.4992107 C 1.065118,2.065949 1.3763853,2 1.7395281,2 2.0564558,2 6.619333,1.7395281 7.0124335,1.7395281 H 16.127949 C 18.183576,1.7395281 24.770557,1 28.25,1 h 3.5 V 0 h -4 C 25.091052,0 16.623243,0.73952808 15.127949,0.73952808 H 6.6331025 C 6.2391294,0.73952808 1.2798621,1 1.0034466,1 0.63105536,1 0,1.3758285 0,2.3217479 V 2.8664702 C 0,3.7342367 0.6,3.560706 0.6,4.2961438 v 8.2997802 c 0,0.15724 -0.3,0.128783 -0.3,0.719742 v 0.968996 c 0,0.524789 0.7,0.890083 0.7,1.047868 v 26.257206 c 0,0.131033 -0.3738166,0.177308 -0.3738166,0.426272 L 0.614807,42.578453 C 0.61480696,42.748797 0,43.226709 0,43.357742 v 0.58658 C 0,44.193286 0.27453995,44.323409 0.32992341,44.45 0.2587161,44.560767 0,44.706714 0,44.955678 v 0.58658 c 0,0.131033 0.61480696,0.608945 0.61480696,0.779289 l 0.0113764,0.562445 C 0.6261834,47.132956 1,47.179231 1,47.310264 V 73.56747 c 0,0.157785 -0.7,0.523079 -0.7,1.047868 v 0.968996 c 0,0.590959 0.3,0.562502 0.3,0.719742 v 8.29978 C 0.6,85.339294 0,85.165763 0,86.03353 v 0.544722 C 0,87.524172 0.63105536,87.9 1.0034466,87.9 c 0.2764155,0 5.2356828,0.260472 5.6296559,0.260472 H 15.127949 C 16.623243,88.160472 25.091052,88.9 27.75,88.9 h 4 v -1 h -3.5 c -3.479443,0 -10.066424,-0.739528 -12.122051,-0.739528 H 7.0124335 C 6.619333,87.160472 2.0564558,86.9 1.7395281,86.9 1.3763853,86.9 1.065118,86.834051 1.065118,86.400789 v -0.28152 C 1.065118,85.831297 1.6,85.613146 1.6,85.220779 v -8.817372 c 0,-0.249308 -0.3,-0.412611 -0.3,-0.91483 V 74.7597 C 1.3,74.274699 2,74.061676 2,73.746923 V 47.06917 C 2,46.885723 1.5523571,46.763158 1.5523571,46.618427 L 1.5056901,46.077334 C 1.5056904,45.906487 1,45.670498 1,45.513258 v -0.413766 c 0,-0.11793 0.3501505,-0.149255 0.3501505,-0.149255 l 1.1345942,-2.8e-5 z"
       id="path73"
       sodipodi:nodetypes="ccccccccccccccccccccccccccccccccccccccccccccccccccccccccccccccccccccccccccccccccccccccccccccccccccccccccccc"
       inkscape:label="leftborderframe" /><path
       style="display:inline;fill:#87744d;fill-opacity:1;stroke-width:0.264583"
       d="m 31.7,45.860943 h 25.611637 c 0.131033,0 0.177308,0.373817 0.426272,0.373817 l 0.562445,0.01138 c 0.170344,0 0.648256,0.614807 0.779289,0.614807 h 0.58658 c 0.248964,0 0.505678,-0.329923 0.505678,-0.329923 v -1.020233 l 4.9e-5,-0.920648 v -0.2662 l -4.9e-5,-0.920648 v -1.020233 c 0,0 -0.256714,-0.329923 -0.505678,-0.329923 h -0.58658 c -0.131033,0 -0.608945,0.614807 -0.779289,0.614807 l -0.562445,0.01138 c -0.248964,0 -0.295239,0.373817 -0.426272,0.373817 H 31.7 v 1 l 25.852777,3e-6 c 0.183447,0 0.306012,-0.447643 0.450743,-0.447643 l 0.541093,-0.04667 c 0.170847,0 0.406836,-0.50569 0.564076,-0.50569 h 0.422561 l 0.04212,0.350151 0.0088,0.776722 v 0.554054 l -0.0088,0.776722 -0.04212,0.350151 h -0.422561 c -0.15724,0 -0.393229,-0.50569 -0.564076,-0.50569 l -0.541093,-0.04667 c -0.144731,0 -0.267296,-0.447643 -0.450743,-0.447643 H 31.7 Z"
       id="path29"
       sodipodi:nodetypes="ccccccccccccccccccccccccccccccccccc"
       inkscape:label="rightcenterrod" /><path
       style="display:inline;fill:#87744d;fill-opacity:1;stroke-width:0.264583"
       d="m 61.015255,43.949791 1.134595,-2.7e-5 c -10e-7,0 0.35015,-0.02253 0.35015,-0.140461 v -0.422561 c 0,-0.15724 -0.50569,-0.393229 -0.50569,-0.564076 L 61.94764,42.281573 C 61.947643,42.136842 61.5,42.014277 61.5,41.83083 V 15.153077 c 0,-0.314753 0.7,-0.527776 0.7,-1.012777 v -0.728877 c 0,-0.502219 -0.3,-0.665522 -0.3,-0.91483 V 4.3859886 L 61.393335,4.3142936 60.903657,4.5231397 60.693055,8.3973264 60.693041,43.95 Z M 60.693027,44.95 60.693,85.603847 l -0.451647,0.344505 -0.978332,0.372481 c 0,0 -5.235683,0.260472 -5.629656,0.260472 h -5.868589 c -1.495294,0 -9.002966,0.739528 -11.661914,0.739528 H 31.7 v -1 h 3.902862 c 3.479443,0 9.106287,-0.739528 11.161914,-0.739528 h 6.489258 c 0.393101,0 5.272906,-0.260472 5.272906,-0.260472 L 59.3322,85.030982 59.693,84.756311 V 8.4347298 c 0,0 -2.629116,0.4761862 -2.826103,0.4761862 h -8.494846 c -1.495294,0 -9.963103,0.739528 -12.622051,0.739528 H 31.7 v -1 h 3.55 c 3.479443,0 10.066424,-0.739528 12.122051,-0.739528 h 9.115515 c 0.393101,0 3.532688,-0.545235 3.532688,-0.545235 L 60.243497,3.8541687 61.188228,3.550018 61.917513,3.4340322 c 0,0 0.517369,-0.3653292 0.517369,-0.653301 V 2.4992107 C 62.434882,2.065949 62.123615,2 61.760472,2 61.443544,2 56.880667,1.7395281 56.487566,1.7395281 H 47.372051 C 45.316424,1.7395281 38.729443,1 35.25,1 H 31.7 V 0 h 4.05 c 2.658948,0 11.126757,0.73952808 12.622051,0.73952808 h 8.494846 C 57.260871,0.73952808 62.220138,1 62.496553,1 62.868945,1 63.5,1.3758285 63.5,2.3217479 v 0.5447223 c 0,0.8677665 -0.6,0.6942358 -0.6,1.4296736 v 8.2997802 c 0,0.15724 0.3,0.128783 0.3,0.719742 v 0.968996 c 0,0.524789 -0.7,0.890083 -0.7,1.047868 v 26.257206 c 0,0.131033 0.373817,0.177308 0.373817,0.426272 l 0.01138,0.562445 c 0,0.170344 0.614807,0.648256 0.614807,0.779289 v 0.58658 c 0,0.248964 -0.27454,0.379087 -0.329923,0.505678 0.07121,0.110767 0.329923,0.256714 0.329923,0.505678 v 0.58658 c 0,0.131033 -0.614807,0.608945 -0.614807,0.779289 l -0.01138,0.562445 c 0,0.248964 -0.373817,0.295239 -0.373817,0.426272 V 73.56747 c 0,0.157785 0.7,0.523079 0.7,1.047868 v 0.968996 c 0,0.590959 -0.3,0.562502 -0.3,0.719742 v 8.29978 c 0,0.735438 0.6,0.561907 0.6,1.429674 v 0.544722 C 63.5,87.524172 62.868945,87.9 62.496553,87.9 c -0.276415,0 -5.235682,0.260472 -5.629656,0.260472 H 48.372051 C 46.876757,88.160472 38.408948,88.9 35.75,88.9 H 31.7 v -1 h 3.55 c 3.479443,0 10.066424,-0.739528 12.122051,-0.739528 h 9.115515 c 0.393101,0 4.955978,-0.260472 5.272906,-0.260472 0.363143,0 0.67441,-0.06595 0.67441,-0.499211 v -0.28152 C 62.434882,85.831297 61.9,85.613146 61.9,85.220779 v -8.817372 c 0,-0.249308 0.3,-0.412611 0.3,-0.91483 V 74.7597 c 0,-0.485001 -0.7,-0.698024 -0.7,-1.012777 V 47.06917 c 0,-0.183447 0.447643,-0.306012 0.447643,-0.450743 l 0.04667,-0.541093 c 0,-0.170847 0.50569,-0.406836 0.50569,-0.564076 v -0.413766 c 0,-0.11793 -0.350151,-0.149255 -0.350151,-0.149255 l -1.134594,-2.8e-5 z"
       id="path30"
       sodipodi:nodetypes="ccccccccccccccccccccccccccccccccccccccccccccccccccccccccccccccccccccccccccccccccccccccccccccccccccccccccccc"
       inkscape:label="rightborderframe" /><text
       xml:space="preserve"
       style="font-size:4.58611px;text-align:start;writing-mode:lr-tb;direction:ltr;text-anchor:start;display:none;fill:#e9d1f4;fill-opacity:1;stroke:#704d87;stroke-width:0;stroke-linecap:butt;stroke-linejoin:round;stroke-dasharray:none;stroke-opacity:1"
       x="13.515208"
       y="6.2193213"
       id="text17"
       inkscape:label="title"><tspan
         sodipodi:role="line"
         id="tspan16"
         style="font-size:4.58611px;fill:#dcd8c2;fill-opacity:1;stroke:#704d87;stroke-width:0;stroke-dasharray:none;stroke-opacity:1"
         x="0"
         y="0">Spacetime Warp</tspan></text><text
       xml:space="preserve"
       style="font-size:4.23333px;text-align:center;writing-mode:lr-tb;direction:ltr;text-anchor:middle;display:none;fill:#dcd8c2;fill-opacity:1;stroke:#704d87;stroke-width:0;stroke-linecap:butt;stroke-linejoin:round;stroke-dasharray:none;stroke-opacity:1"
       x="31.410919"
       y="52.384827"
       id="text28"
       inkscape:label="description"><tspan
         sodipodi:role="line"
         style="font-size:4.23333px;text-align:center;text-anchor:middle;fill:#dcd8c2;fill-opacity:1;stroke-width:0"
         x="0"
         y="0"
         id="tspan19">Choose two target</tspan><tspan
         sodipodi:role="line"
         style="font-size:4.23333px;text-align:center;text-anchor:middle;fill:#dcd8c2;fill-opacity:1;stroke-width:0"
         x="0"
         y="0"
         id="tspan20">friendlies to swap</tspan><tspan
         sodipodi:role="line"
         style="font-size:4.23333px;text-align:center;text-anchor:middle;fill:#dcd8c2;fill-opacity:1;stroke-width:0"
         x="0"
         y="0"
         id="tspan25">positions.</tspan><tspan
         sodipodi:role="line"
         style="font-size:4.23333px;text-align:center;text-anchor:middle;fill:#dcd8c2;fill-opacity:1;stroke-width:0"
         x="0"
         y="0"
         id="tspan26">Draw a card.</tspan><tspan
         sodipodi:role="line"
         style="font-style:italic;font-variant:normal;font-weight:normal;font-stretch:normal;font-size:4.23333px;font-family:sans-serif;-inkscape-font-specification:'sans-serif Italic';text-align:center;text-anchor:middle;fill:#dcd8c2;fill-opacity:1;stroke-width:0"
         x="0"
         y="0"
         id="tspan27">(This may restore</tspan><tspan
         sodipodi:role="line"
         style="font-style:italic;font-variant:normal;font-weight:normal;font-stretch:normal;font-size:4.23333px;font-family:sans-serif;-inkscape-font-specification:'sans-serif Italic';text-align:center;text-anchor:middle;fill:#dcd8c2;fill-opacity:1;stroke-width:0"
         x="0"
         y="0"
         id="tspan28">an action)</tspan></text><path
       style="display:inline;fill:#87744d;fill-opacity:1;stroke-width:0.264583"
       d="m 2.4847447,43.949791 -1.1345942,-2.7e-5 C 1.3501505,43.949764 1,43.927233 1,43.809303 v -0.422561 c 0,-0.15724 0.5056904,-0.393229 0.5056901,-0.564076 l 0.046667,-0.541093 C 1.5523571,42.136842 2,42.014277 2,41.83083 V 15.153077 C 2,14.838324 1.3,14.625301 1.3,14.1403 v -0.728877 c 0,-0.502219 0.3,-0.665522 0.3,-0.91483 V 4.3859886 L 2.1066647,4.3142936 2.5963427,4.5231397 2.8069454,8.3973264 2.8069591,43.95 Z M 2.8069727,44.95 2.807,85.603847 l 0.451647,0.344505 0.9783317,0.372481 c 0,0 5.2356828,0.260472 5.6296559,0.260472 h 5.8685894 c 1.495294,0 9.002966,0.739528 11.661914,0.739528 H 31.75 v -1 h -3.852862 c -3.479443,0 -9.106287,-0.739528 -11.161914,-0.739528 h -6.489258 c -0.3931009,0 -5.2729058,-0.260472 -5.2729058,-0.260472 L 4.1677999,85.030982 3.807,84.756311 V 8.4347298 c 0,0 2.6291159,0.4761862 2.8261025,0.4761862 h 8.4948465 c 1.495294,0 9.963103,0.739528 12.622051,0.739528 h 4 v -1 h -3.5 c -3.479443,0 -10.066424,-0.739528 -12.122051,-0.739528 H 7.0124335 c -0.3931005,0 -3.5326873,-0.545235 -3.5326873,-0.545235 L 3.2565027,3.8541687 2.3117716,3.550018 1.5824865,3.4340322 c 0,0 -0.5173685,-0.3653292 -0.5173685,-0.653301 V 2.4992107 C 1.065118,2.065949 1.3763853,2 1.7395281,2 2.0564558,2 6.619333,1.7395281 7.0124335,1.7395281 H 16.127949 C 18.183576,1.7395281 24.770557,1 28.25,1 h 3.5 V 0 h -4 C 25.091052,0 16.623243,0.73952808 15.127949,0.73952808 H 6.6331025 C 6.2391294,0.73952808 1.2798621,1 1.0034466,1 0.63105536,1 0,1.3758285 0,2.3217479 V 2.8664702 C 0,3.7342367 0.6,3.560706 0.6,4.2961438 v 8.2997802 c 0,0.15724 -0.3,0.128783 -0.3,0.719742 v 0.968996 c 0,0.524789 0.7,0.890083 0.7,1.047868 v 26.257206 c 0,0.131033 -0.3738166,0.177308 -0.3738166,0.426272 L 0.614807,42.578453 C 0.61480696,42.748797 0,43.226709 0,43.357742 v 0.58658 C 0,44.193286 0.27453995,44.323409 0.32992341,44.45 0.2587161,44.560767 0,44.706714 0,44.955678 v 0.58658 c 0,0.131033 0.61480696,0.608945 0.61480696,0.779289 l 0.0113764,0.562445 C 0.6261834,47.132956 1,47.179231 1,47.310264 V 73.56747 c 0,0.157785 -0.7,0.523079 -0.7,1.047868 v 0.968996 c 0,0.590959 0.3,0.562502 0.3,0.719742 v 8.29978 C 0.6,85.339294 0,85.165763 0,86.03353 v 0.544722 C 0,87.524172 0.63105536,87.9 1.0034466,87.9 c 0.2764155,0 5.2356828,0.260472 5.6296559,0.260472 H 15.127949 C 16.623243,88.160472 25.091052,88.9 27.75,88.9 h 4 v -1 h -3.5 c -3.479443,0 -10.066424,-0.739528 -12.122051,-0.739528 H 7.0124335 C 6.619333,87.160472 2.0564558,86.9 1.7395281,86.9 1.3763853,86.9 1.065118,86.834051 1.065118,86.400789 v -0.28152 C 1.065118,85.831297 1.6,85.613146 1.6,85.220779 v -8.817372 c 0,-0.249308 -0.3,-0.412611 -0.3,-0.91483 V 74.7597 C 1.3,74.274699 2,74.061676 2,73.746923 V 47.06917 C 2,46.885723 1.5523571,46.763158 1.5523571,46.618427 L 1.5056901,46.077334 C 1.5056904,45.906487 1,45.670498 1,45.513258 v -0.413766 c 0,-0.11793 0.3501505,-0.149255 0.3501505,-0.149255 l 1.1345942,-2.8e-5 z"
       id="path34"
       sodipodi:nodetypes="ccccccccccccccccccccccccccccccccccccccccccccccccccccccccccccccccccccccccccccccccccccccccccccccccccccccccccc"
       inkscape:label="leftborderframe" /><path
       style="display:inline;fill:#87744d;fill-opacity:1;stroke-width:0.264583"
       d="m 61.015255,43.949791 1.134595,-2.7e-5 c -10e-7,0 0.35015,-0.02253 0.35015,-0.140461 v -0.422561 c 0,-0.15724 -0.50569,-0.393229 -0.50569,-0.564076 L 61.94764,42.281573 C 61.947643,42.136842 61.5,42.014277 61.5,41.83083 V 15.153077 c 0,-0.314753 0.7,-0.527776 0.7,-1.012777 v -0.728877 c 0,-0.502219 -0.3,-0.665522 -0.3,-0.91483 V 4.3859886 L 61.393335,4.3142936 60.903657,4.5231397 60.693055,8.3973264 60.693041,43.95 Z M 60.693027,44.95 60.693,85.603847 l -0.451647,0.344505 -0.978332,0.372481 c 0,0 -5.235683,0.260472 -5.629656,0.260472 h -5.868589 c -1.495294,0 -9.002966,0.739528 -11.661914,0.739528 H 31.7 v -1 h 3.902862 c 3.479443,0 9.106287,-0.739528 11.161914,-0.739528 h 6.489258 c 0.393101,0 5.272906,-0.260472 5.272906,-0.260472 L 59.3322,85.030982 59.693,84.756311 V 8.4347298 c 0,0 -2.629116,0.4761862 -2.826103,0.4761862 h -8.494846 c -1.495294,0 -9.963103,0.739528 -12.622051,0.739528 H 31.7 v -1 h 3.55 c 3.479443,0 10.066424,-0.739528 12.122051,-0.739528 h 9.115515 c 0.393101,0 3.532688,-0.545235 3.532688,-0.545235 L 60.243497,3.8541687 61.188228,3.550018 61.917513,3.4340322 c 0,0 0.517369,-0.3653292 0.517369,-0.653301 V 2.4992107 C 62.434882,2.065949 62.123615,2 61.760472,2 61.443544,2 56.880667,1.7395281 56.487566,1.7395281 H 47.372051 C 45.316424,1.7395281 38.729443,1 35.25,1 H 31.7 V 0 h 4.05 c 2.658948,0 11.126757,0.73952808 12.622051,0.73952808 h 8.494846 C 57.260871,0.73952808 62.220138,1 62.496553,1 62.868945,1 63.5,1.3758285 63.5,2.3217479 v 0.5447223 c 0,0.8677665 -0.6,0.6942358 -0.6,1.4296736 v 8.2997802 c 0,0.15724 0.3,0.128783 0.3,0.719742 v 0.968996 c 0,0.524789 -0.7,0.890083 -0.7,1.047868 v 26.257206 c 0,0.131033 0.373817,0.177308 0.373817,0.426272 l 0.01138,0.562445 c 0,0.170344 0.614807,0.648256 0.614807,0.779289 v 0.58658 c 0,0.248964 -0.27454,0.379087 -0.329923,0.505678 0.07121,0.110767 0.329923,0.256714 0.329923,0.505678 v 0.58658 c 0,0.131033 -0.614807,0.608945 -0.614807,0.779289 l -0.01138,0.562445 c 0,0.248964 -0.373817,0.295239 -0.373817,0.426272 V 73.56747 c 0,0.157785 0.7,0.523079 0.7,1.047868 v 0.968996 c 0,0.590959 -0.3,0.562502 -0.3,0.719742 v 8.29978 c 0,0.735438 0.6,0.561907 0.6,1.429674 v 0.544722 C 63.5,87.524172 62.868945,87.9 62.496553,87.9 c -0.276415,0 -5.235682,0.260472 -5.629656,0.260472 H 48.372051 C 46.876757,88.160472 38.408948,88.9 35.75,88.9 H 31.7 v -1 h 3.55 c 3.479443,0 10.066424,-0.739528 12.122051,-0.739528 h 9.115515 c 0.393101,0 4.955978,-0.260472 5.272906,-0.260472 0.363143,0 0.67441,-0.06595 0.67441,-0.499211 v -0.28152 C 62.434882,85.831297 61.9,85.613146 61.9,85.220779 v -8.817372 c 0,-0.249308 0.3,-0.412611 0.3,-0.91483 V 74.7597 c 0,-0.485001 -0.7,-0.698024 -0.7,-1.012777 V 47.06917 c 0,-0.183447 0.447643,-0.306012 0.447643,-0.450743 l 0.04667,-0.541093 c 0,-0.170847 0.50569,-0.406836 0.50569,-0.564076 v -0.413766 c 0,-0.11793 -0.350151,-0.149255 -0.350151,-0.149255 l -1.134594,-2.8e-5 z"
       id="path35"
       sodipodi:nodetypes="ccccccccccccccccccccccccccccccccccccccccccccccccccccccccccccccccccccccccccccccccccccccccccccccccccccccccccc"
       inkscape:label="rightborderframe" /><circle
       style="display:inline;fill:#918854;fill-opacity:1;stroke:#87744d;stroke-width:0.792793;stroke-linecap:butt;stroke-linejoin:round;stroke-dasharray:none;stroke-opacity:1"
       id="path7"
       cx="2.8324502"
       cy="44.495041"
       r="0.99554509"
       inkscape:label="leftbolt" /><circle
       style="display:inline;fill:#918854;fill-opacity:1;stroke:#87744d;stroke-width:1;stroke-linecap:butt;stroke-linejoin:round;stroke-dasharray:none;stroke-opacity:1"
       id="circle33"
       cx="-60.832455"
       cy="4.507432"
       r="1.4327978"
       transform="scale(-1,1)"
       inkscape:label="cornerbolt" /><circle
       style="display:inline;fill:#918854;fill-opacity:1;stroke:#87744d;stroke-width:0.792793;stroke-linecap:butt;stroke-linejoin:round;stroke-dasharray:none;stroke-opacity:1"
       id="circle34"
       cx="60.577763"
       cy="44.495041"
       r="0.99554509"
       inkscape:label="rightbolt" /></g><g
     inkscape:groupmode="layer"
     id="g37"
     inkscape:label="manapanel"
     style="display:inline"><path
       id="circle14"
       style="display:inline;fill:#1b1b1b;fill-opacity:1;stroke:#1b1b1b;stroke-width:2.3;stroke-linecap:butt;stroke-linejoin:bevel;stroke-dasharray:none;stroke-opacity:1"
       d="m 3.2153076,-3.9444621 a 7.6197009,7.6197009 0 0 0 -7.6196899,7.61969 7.6197009,7.6197009 0 0 0 4.70875649,7.0419471 L 0.33072917,6.8130208 7.2098958,0.69453125 10.170955,0.56430664 A 7.6197009,7.6197009 0 0 0 3.2153076,-3.9444621 Z" /><circle
       style="display:none;fill:none;fill-opacity:1;stroke:#1b1b1b;stroke-width:2.3;stroke-linecap:butt;stroke-linejoin:round;stroke-dasharray:none;stroke-opacity:1"
       id="circle1"
       cx="3.2151253"
       cy="3.6753912"
       r="7.6197009" /><circle
       style="display:inline;fill:#918854;fill-opacity:1;stroke:#87744d;stroke-width:1;stroke-linecap:butt;stroke-linejoin:round;stroke-dasharray:none;stroke-opacity:1"
       id="circle36"
       cx="3.2151253"
       cy="3.6753912"
       r="7.6197009" /><circle
       style="display:inline;fill:#5b3b65;fill-opacity:1;stroke:#87744d;stroke-width:1;stroke-linecap:butt;stroke-linejoin:round;stroke-dasharray:none;stroke-opacity:1"
       id="circle37"
       cx="3.2151253"
       cy="3.6753912"
       r="5.8024316" /><text
       xml:space="preserve"
       style="font-style:normal;font-variant:normal;font-weight:normal;font-stretch:normal;font-size:8.46667px;font-family:sans-serif;-inkscape-font-specification:sans-serif;text-align:center;writing-mode:lr-tb;direction:ltr;text-anchor:middle;display:none;fill:#493d2b;fill-opacity:1;stroke:none;stroke-width:0;stroke-linecap:butt;stroke-linejoin:round;stroke-dasharray:none;stroke-opacity:1"
       x="2.9434893"
       y="6.1846352"
       id="text50"><tspan
         sodipodi:role="line"
         id="tspan50"
         style="font-size:8.46667px;fill:#ffffff;fill-opacity:1;stroke-width:0"
         x="0"
         y="0">1</tspan></text></g><g
     inkscape:groupmode="layer"
     id="layer3"
     inkscape:label="Overload"><circle
       style="fill:#754933;fill-opacity:1;stroke:#87744d;stroke-width:1.21592;stroke-linejoin:bevel;stroke-dasharray:none;stroke-opacity:1"
       id="path18"
       cx="3.2576823"
       cy="-5.0766926"
       r="2.834342" /><path
       style="fill:#ce9917;fill-opacity:1;stroke:none;stroke-width:1.4884;stroke-linejoin:bevel;stroke-dasharray:none;stroke-opacity:1"
       d="m 2.5378883,-6.457858 0.1166681,0.6202347 0.6049592,-1.3337685 0.5395733,1.2765533 0.2041072,-0.5311 c 0,0 0.7488705,1.0902869 0.7509445,1.8073635 0.00208,0.7178157 -0.6196145,1.3081878 -1.4967504,1.3443563 -0.877136,0.036169 -1.506475,-0.8014352 -1.5414392,-1.3671421 1.149e-4,-0.6709443 0.8219373,-1.8164972 0.8219373,-1.8164972 z"
       id="path19"
       sodipodi:nodetypes="cccccszcc" /><ellipse
       style="fill:#ecd615;fill-opacity:1;stroke:none;stroke-width:1.24824;stroke-linejoin:bevel;stroke-dasharray:none;stroke-opacity:1"
       id="path20"
       cx="3.2506657"
       cy="-4.0750246"
       rx="0.84774554"
       ry="0.71912205" /></g></svg>
